<svg width="336" height="335" viewBox="0 0 336 335" fill="none" xmlns="http://www.w3.org/2000/svg">
<g filter="url(#filter0_d)">
<circle cx="167.956" cy="164.5" r="162.5" fill="white"/>
</g>
<mask id="mask0" mask-type="alpha" maskUnits="userSpaceOnUse" x="5" y="2" width="326" height="325">
<circle cx="167.956" cy="164.5" r="162.5" fill="white"/>
</mask>
<g mask="url(#mask0)">
<rect x="5.45642" y="2" width="325" height="325" fill="#73BBC5"/>
<mask id="mask1" mask-type="alpha" maskUnits="userSpaceOnUse" x="5" y="2" width="326" height="325">
<rect x="5.45642" y="2" width="325" height="325" fill="white"/>
</mask>
<g mask="url(#mask1)">
<path d="M193.347 236.004V266.062C193.347 280.085 181.979 291.453 167.956 291.453C153.934 291.453 142.566 280.085 142.566 266.062V236.004C122.062 228.161 106.117 211.098 99.8057 189.887C99.6713 189.889 99.5367 189.891 99.4017 189.891C86.7812 189.891 76.5502 179.66 76.5502 167.039C76.5502 155.277 85.437 145.59 96.8627 144.327V139.109C96.8627 99.8454 128.692 68.0156 167.956 68.0156C207.22 68.0156 239.05 99.8454 239.05 139.109V144.327C250.476 145.59 259.363 155.277 259.363 167.039C259.363 179.66 249.132 189.891 236.511 189.891C236.376 189.891 236.242 189.889 236.107 189.887C229.796 211.098 213.851 228.161 193.347 236.004Z" fill="#D78774"/>
<mask id="mask2" mask-type="alpha" maskUnits="userSpaceOnUse" x="76" y="68" width="184" height="224">
<path d="M193.347 236.004V266.062C193.347 280.085 181.979 291.453 167.956 291.453C153.934 291.453 142.566 280.085 142.566 266.062V236.004C122.062 228.161 106.117 211.098 99.8057 189.887C99.6713 189.889 99.5367 189.891 99.4017 189.891C86.7812 189.891 76.5502 179.66 76.5502 167.039C76.5502 155.277 85.437 145.59 96.8627 144.327V139.109C96.8627 99.8454 128.692 68.0156 167.956 68.0156C207.22 68.0156 239.05 99.8454 239.05 139.109V144.327C250.476 145.59 259.363 155.277 259.363 167.039C259.363 179.66 249.132 189.891 236.511 189.891C236.376 189.891 236.242 189.889 236.107 189.887C229.796 211.098 213.851 228.161 193.347 236.004Z" fill="white"/>
</mask>
<g mask="url(#mask2)">
<g style="mix-blend-mode:overlay" opacity="0.363979">
<path d="M167.956 68.0156C207.22 68.0156 239.05 99.8454 239.05 139.109V169.578C239.05 208.842 207.22 240.672 167.956 240.672C128.692 240.672 96.8627 208.842 96.8627 169.578V139.109C96.8627 99.8454 128.692 68.0156 167.956 68.0156Z" fill="white"/>
</g>
</g>
<path fill-rule="evenodd" clip-rule="evenodd" d="M137.488 154.344C141.695 154.344 145.105 150.933 145.105 146.727C145.105 142.52 141.695 139.109 137.488 139.109C133.281 139.109 129.87 142.52 129.87 146.727C129.87 150.933 133.281 154.344 137.488 154.344ZM198.425 154.344C202.632 154.344 206.042 150.933 206.042 146.727C206.042 142.52 202.632 139.109 198.425 139.109C194.218 139.109 190.808 142.52 190.808 146.727C190.808 150.933 194.218 154.344 198.425 154.344Z" fill="#1B0640"/>
<path opacity="0.30299" fill-rule="evenodd" clip-rule="evenodd" d="M152.722 134.031H122.253V164.5H152.722V134.031ZM213.66 134.031H183.191V164.5H213.66V134.031Z" fill="white"/>
<path fill-rule="evenodd" clip-rule="evenodd" d="M162.878 129.22H173.035C176.359 129.22 179.2 128.202 182.402 127.054C186.536 125.572 191.271 123.875 198.425 123.875C206.889 123.875 215.352 125.657 223.816 129.22L228.894 131.893V139.911L223.816 142.584V158.62C223.816 167.477 216.995 174.656 208.581 174.656H188.269C179.855 174.656 173.035 167.477 173.035 158.62V139.911H162.878V158.62C162.878 167.477 156.058 174.656 147.644 174.656H127.331C118.918 174.656 112.097 167.477 112.097 158.62V142.584L107.019 139.911V131.893L112.097 129.22C120.561 125.657 129.024 123.875 137.488 123.875C144.642 123.875 149.377 125.572 153.51 127.054C156.712 128.202 159.553 129.22 162.878 129.22ZM148.876 136.69C144.59 135.186 141.643 134.566 137.488 134.566C132.437 134.566 127.366 135.322 122.253 136.848V158.62C122.253 161.572 124.527 163.965 127.331 163.965H147.644C150.448 163.965 152.722 161.572 152.722 158.62V138.047C151.663 137.693 150.453 137.261 148.876 136.69ZM183.191 138.047C184.25 137.693 185.46 137.261 187.037 136.69C191.323 135.186 194.27 134.566 198.425 134.566C203.476 134.566 208.547 135.322 213.66 136.848V158.62C213.66 161.572 211.386 163.965 208.581 163.965H188.269C185.464 163.965 183.191 161.572 183.191 158.62V138.047Z" fill="#1B0640"/>
<path d="M220.06 76.2967C235.775 83.3389 245.757 100.025 243.51 118.002C243.481 118.236 243.45 118.469 243.416 118.702L239.05 149.266C224.695 140.653 215.21 121.083 210.594 90.5573C203.15 98.2591 193.07 103.448 181.688 104.643C172.429 105.615 164.466 106.102 157.8 106.102C142.566 106.102 129.024 103.562 117.175 98.4844C117.175 117.104 110.404 134.878 96.8627 151.805L92.1784 108.475C89.4654 83.3798 107.61 60.8371 132.704 58.1241C134.336 57.9478 135.976 57.8594 137.617 57.8594L223.816 57.8594C223.816 64.3818 222.482 70.6189 220.06 76.2967Z" fill="#362C47"/>
<g style="mix-blend-mode:overlay" opacity="0.258673">
<path fill-rule="evenodd" clip-rule="evenodd" d="M220.06 76.2967C222.482 70.6189 223.816 64.3818 223.816 57.8594H137.617C135.976 57.8594 134.336 57.9478 132.704 58.1241C107.61 60.8371 89.4654 83.3798 92.1784 108.475L96.8627 151.805C110.404 134.878 117.175 117.104 117.175 98.4844C129.024 103.562 142.566 106.102 157.8 106.102C164.466 106.102 172.429 105.615 181.688 104.643C193.07 103.448 203.15 98.2591 210.594 90.5573C214.568 86.445 217.791 81.6164 220.06 76.2967Z" fill="white"/>
</g>
<path d="M142.566 250.828V266.062C142.566 280.085 153.934 291.453 167.956 291.453C181.979 291.453 193.347 280.085 193.347 266.062V250.828L227.1 261.214C246.277 267.114 259.363 284.832 259.363 304.896V327H76.5502L76.5502 304.896C76.5502 284.832 89.636 267.114 108.813 261.214L142.566 250.828Z" fill="#E74C3C"/>
<path d="M159.415 213.898C157.375 213.388 156.134 211.32 156.644 209.279C157.154 207.239 159.222 205.998 161.263 206.508C173.62 209.598 182.415 208.132 188.115 202.432C189.602 200.945 192.014 200.945 193.501 202.432C194.988 203.919 194.988 206.331 193.501 207.818C185.659 215.66 174.141 217.579 159.415 213.898Z" fill="#1B0640"/>
<path d="M154.187 175.861C153.522 173.865 154.6 171.708 156.596 171.043C158.591 170.378 160.748 171.456 161.413 173.452C162.597 177.002 164.548 178.465 167.957 178.465C171.365 178.465 173.316 177.002 174.5 173.452C175.165 171.456 177.322 170.378 179.317 171.043C181.313 171.708 182.391 173.865 181.726 175.861C179.524 182.467 174.704 186.082 167.957 186.082C161.209 186.082 156.389 182.467 154.187 175.861Z" fill="#EEB4A4"/>
</g>
</g>
<defs>
<filter id="filter0_d" x="0.456421" y="0" width="335" height="335" filterUnits="userSpaceOnUse" color-interpolation-filters="sRGB">
<feFlood flood-opacity="0" result="BackgroundImageFix"/>
<feColorMatrix in="SourceAlpha" type="matrix" values="0 0 0 0 0 0 0 0 0 0 0 0 0 0 0 0 0 0 127 0"/>
<feOffset dy="3"/>
<feGaussianBlur stdDeviation="2.5"/>
<feColorMatrix type="matrix" values="0 0 0 0 0.0941975 0 0 0 0 0.111796 0 0 0 0 0.234986 0 0 0 0.0779269 0"/>
<feBlend mode="normal" in2="BackgroundImageFix" result="effect1_dropShadow"/>
<feBlend mode="normal" in="SourceGraphic" in2="effect1_dropShadow" result="shape"/>
</filter>
</defs>
</svg>
