<svg width="71" height="71" viewBox="0 0 71 71" fill="none" xmlns="http://www.w3.org/2000/svg">
<circle cx="35.9573" cy="35.8455" r="35" fill="#EEEEEE"/>
<path d="M44.7906 56.6787C44.2381 56.6787 43.7082 56.4592 43.3175 56.0685C42.9268 55.6778 42.7073 55.1479 42.7073 54.5954V49.1787C42.772 48.5556 42.7053 47.9259 42.5115 47.3302C42.3178 46.7345 42.0012 46.1861 41.5823 45.7204C41.3229 45.4391 41.146 45.0918 41.071 44.7166C40.996 44.3414 41.0257 43.9528 41.157 43.5934C41.2883 43.234 41.516 42.9177 41.8152 42.6791C42.1144 42.4406 42.4735 42.2891 42.8531 42.2412C47.9364 41.637 52.6239 40.012 52.6239 31.1995C52.6255 29.5539 52.1398 27.9446 51.2281 26.5745C50.3868 25.3134 50.0796 23.7701 50.3739 22.2829C50.5617 21.3127 50.5617 20.3155 50.3739 19.3454C48.8139 19.8728 47.3451 20.6389 46.0198 21.6162C45.7692 21.7942 45.4823 21.9145 45.1798 21.9685C44.8772 22.0225 44.5665 22.0089 44.2698 21.9287C40.51 20.8663 36.5295 20.8663 32.7698 21.9287C32.4731 22.0089 32.1623 22.0225 31.8598 21.9685C31.5572 21.9145 31.2703 21.7942 31.0198 21.6162C29.6863 20.6275 28.2019 19.8607 26.6239 19.3454C26.4258 20.3145 26.4258 21.3137 26.6239 22.2829C26.897 23.7888 26.5759 25.342 25.7281 26.6162C24.8203 27.9958 24.3352 29.6105 24.3323 31.262C24.3323 39.3662 28.2489 41.5329 34.1239 42.2829C34.5084 42.3306 34.8719 42.4845 35.1737 42.7274C35.4754 42.9703 35.7035 43.2925 35.8323 43.6579C35.9534 44.0124 35.9767 44.393 35.8997 44.7596C35.8227 45.1263 35.6483 45.4654 35.3948 45.7412C34.9896 46.1743 34.6785 46.6868 34.4813 47.2462C34.2841 47.8055 34.205 48.3997 34.2489 48.9912V54.5954C34.2489 55.1479 34.0294 55.6778 33.6387 56.0685C33.248 56.4592 32.7181 56.6787 32.1656 56.6787C31.6131 56.6787 31.0832 56.4592 30.6925 56.0685C30.3018 55.6778 30.0823 55.1479 30.0823 54.5954V53.4079C28.0351 53.6433 25.9615 53.369 24.046 52.6093C22.1305 51.8497 20.4325 50.6282 19.1031 49.0537C18.4198 48.2963 17.5999 47.6744 16.6864 47.2204C16.4211 47.152 16.1717 47.032 15.9527 46.8672C15.7337 46.7025 15.5493 46.4962 15.41 46.2602C15.2707 46.0242 15.1793 45.7631 15.1409 45.4917C15.1026 45.2203 15.118 44.9441 15.1864 44.6787C15.2548 44.4133 15.3748 44.164 15.5396 43.945C15.7043 43.726 15.9106 43.5416 16.1466 43.4023C16.3826 43.263 16.6438 43.1716 16.9151 43.1332C17.1865 43.0949 17.4627 43.1103 17.7281 43.1787C19.3307 43.7625 20.7627 44.7363 21.8948 46.012C23.9781 48.0954 26.0614 49.9287 30.0198 49.1787C29.9502 48.0602 30.1133 46.9393 30.4989 45.887C26.2073 44.8037 20.0823 41.7204 20.0823 31.3037C20.0768 28.8363 20.8017 26.4224 22.1656 24.3662C22.4189 23.9866 22.516 23.5239 22.4364 23.0745C22.0154 20.8257 22.2542 18.5032 23.1239 16.387C23.2421 16.1049 23.421 15.8522 23.6478 15.647C23.8746 15.4417 24.1439 15.289 24.4364 15.1995C25.1448 14.9912 27.6864 14.5745 32.4989 17.6995C36.3947 16.7621 40.4573 16.7621 44.3531 17.6995C49.1656 14.5745 51.7073 14.9704 52.3948 15.1995C52.6873 15.289 52.9566 15.4417 53.1834 15.647C53.4102 15.8522 53.5891 16.1049 53.7073 16.387C54.5787 18.51 54.8175 20.8398 54.3948 23.0954C54.3521 23.2986 54.3504 23.5083 54.3898 23.7122C54.4291 23.9161 54.5087 24.1101 54.6239 24.2829C55.9918 26.345 56.7169 28.7667 56.7073 31.2412C56.7073 41.8037 50.6239 44.8662 46.2906 45.8245C46.6723 46.9425 46.8281 48.1251 46.7489 49.3037V54.5954C46.7499 55.1269 46.5476 55.6387 46.1836 56.026C45.8195 56.4133 45.3212 56.6468 44.7906 56.6787Z" fill="#393939"/>
</svg>
