<svg width="400" height="300" viewBox="0 0 400 300" fill="none" xmlns="http://www.w3.org/2000/svg">
<path opacity="0.3" d="M91.4499 69C61.3499 88.72 43.5199 124.91 46.3499 162.7C47.7999 182.03 54.3499 200.79 72.1199 210.85C119.65 237.85 326.76 237.62 354.99 190.49C384.07 141.94 374.08 74.35 307.99 45.95C250.65 21.31 169.17 18.06 91.4499 69Z" fill="#E6E6E6"/>
<path d="M78.6001 219.52V204.67H101.6V219.52" stroke="#E6E6E6" stroke-width="3" stroke-linecap="round" stroke-linejoin="round"/>
<path opacity="0.45" d="M191.68 279.78C282.393 279.78 355.93 272.76 355.93 264.1C355.93 255.44 282.393 248.42 191.68 248.42C100.967 248.42 27.4299 255.44 27.4299 264.1C27.4299 272.76 100.967 279.78 191.68 279.78Z" fill="#E6E6E6"/>
<path d="M81.8699 121.83C81.8699 120.981 81.7025 120.14 81.3772 119.356C81.0519 118.571 80.5752 117.859 79.9743 117.259C79.3733 116.659 78.66 116.183 77.8751 115.859C77.0902 115.535 76.2491 115.369 75.3999 115.37C75.0646 115.372 74.7301 115.402 74.3999 115.46C73.6529 114.073 72.5447 112.914 71.1926 112.106C69.8405 111.298 68.295 110.871 66.7199 110.87H66.3999C66.6077 110.049 66.7152 109.207 66.7199 108.36C66.763 106.974 66.5273 105.594 66.0268 104.302C65.5263 103.009 64.7712 101.83 63.8063 100.834C62.8414 99.8391 61.6864 99.0477 60.4099 98.5073C59.1333 97.9668 57.7612 97.6884 56.3749 97.6884C54.9886 97.6884 53.6165 97.9668 52.3399 98.5073C51.0634 99.0477 49.9084 99.8391 48.9435 100.834C47.9786 101.83 47.2235 103.009 46.723 104.302C46.2225 105.594 45.9868 106.974 46.0299 108.36C46.0346 109.207 46.1421 110.049 46.3499 110.87H46.0299C44.8606 110.83 43.6953 111.027 42.6033 111.447C41.5114 111.867 40.5152 112.502 39.674 113.316C38.8328 114.129 38.1638 115.103 37.707 116.18C37.2501 117.257 37.0146 118.415 37.0146 119.585C37.0146 120.755 37.2501 121.913 37.707 122.99C38.1638 124.067 38.8328 125.041 39.674 125.855C40.5152 126.668 41.5114 127.303 42.6033 127.723C43.6953 128.144 44.8606 128.34 46.0299 128.3H76.2499V128.24C77.8052 128.036 79.2332 127.273 80.2673 126.094C81.3014 124.914 81.8711 123.399 81.8699 121.83Z" fill="#E6E6E6"/>
<path d="M351.69 54.73C351.693 52.4208 350.779 50.2048 349.15 48.5682C347.521 46.9315 345.309 46.0079 343 46C342.531 46.0043 342.063 46.0444 341.6 46.12C340.595 44.2493 339.102 42.6858 337.28 41.5959C335.457 40.5059 333.373 39.9302 331.25 39.93C331.1 39.93 330.96 39.93 330.82 39.93C331.374 37.8561 331.445 35.6824 331.025 33.5771C330.605 31.4718 329.707 29.4911 328.4 27.7884C327.092 26.0856 325.411 24.7063 323.485 23.7571C321.56 22.8078 319.442 22.3141 317.295 22.3141C315.148 22.3141 313.03 22.8078 311.105 23.7571C309.179 24.7063 307.498 26.0856 306.19 27.7884C304.883 29.4911 303.985 31.4718 303.565 33.5771C303.145 35.6824 303.216 37.8561 303.77 39.93C303.63 39.93 303.49 39.93 303.34 39.93C300.282 40.0192 297.379 41.2968 295.247 43.4915C293.115 45.6863 291.923 48.6254 291.923 51.685C291.923 54.7446 293.115 57.6837 295.247 59.8784C297.379 62.0732 300.282 63.3508 303.34 63.44H344.14V63.36C346.23 63.0792 348.147 62.0497 349.535 60.4626C350.924 58.8756 351.689 56.8387 351.69 54.73Z" fill="#E6E6E6"/>
<path d="M163.7 121.95L186.17 93.95L191.02 98.2L171.87 130.22L163.7 121.95Z" fill="#F7809C"/>
<path d="M135.42 85.12L139.56 97.55L129.72 103.81L126.18 82.25L135.42 85.12Z" fill="#F4A28C"/>
<path d="M122.8 70.23C123.313 69.0454 124.115 68.008 125.131 67.2123C126.148 66.4166 127.348 65.8878 128.621 65.6741C129.894 65.4605 131.2 65.5686 132.421 65.9888C133.642 66.409 134.738 67.1279 135.61 68.08C139.8 72.55 144.85 79.66 139.14 83.53C130.39 89.46 122.37 78.39 122.37 78.39C121.703 75.6873 121.853 72.8477 122.8 70.23Z" fill="#F4A28C"/>
<path d="M129.19 77.86C129.19 77.86 126.95 75.98 125.94 78.64C124.93 81.3 128.88 82.64 130.06 81.25C131.24 79.86 129.19 77.86 129.19 77.86Z" fill="#F4A28C"/>
<path d="M118.23 109.91C119.713 106.614 121.89 103.677 124.611 101.299C127.333 98.9209 130.535 97.1578 134 96.13C147.38 92.13 172 96.51 179.51 109.02C189.79 126.15 174.74 180.56 174.74 180.56L129.8 184.05C129.8 184.05 105.08 139.45 118.23 109.91Z" fill="#F7809C"/>
<path opacity="0.08" d="M137.9 95C137.9 95 116.9 162.71 177.58 167.2L174.75 180.6L129.81 184.09C129.81 184.09 113.97 159.22 114.64 124.29C114.64 124.29 115.02 107.02 127.18 99.39C130.399 97.1786 134.054 95.6817 137.9 95Z" fill="black"/>
<path d="M156.23 95.78C153.984 99.3796 152.793 103.537 152.793 107.78C152.793 112.023 153.984 116.18 156.23 119.78C161.13 128.05 175.39 144.16 185.14 154.78C186.242 155.983 187.613 156.906 189.141 157.475C190.67 158.044 192.311 158.242 193.931 158.053C195.551 157.863 197.102 157.292 198.458 156.386C199.814 155.479 200.935 154.264 201.73 152.84L222.73 115.92L215.62 111.36L196.42 139.5C196.42 139.5 183.24 96.32 156.23 95.78Z" fill="#F7809C"/>
<path opacity="0.2" d="M156.23 95.78C153.984 99.3796 152.793 103.537 152.793 107.78C152.793 112.023 153.984 116.18 156.23 119.78C161.13 128.05 175.39 144.16 185.14 154.78C186.242 155.983 187.613 156.906 189.141 157.475C190.67 158.044 192.311 158.242 193.931 158.053C195.551 157.863 197.102 157.292 198.458 156.386C199.814 155.479 200.935 154.264 201.73 152.84L222.73 115.92L215.62 111.36L196.42 139.5C196.42 139.5 183.24 96.32 156.23 95.78Z" fill="white"/>
<path d="M220.2 114.33C220.2 114.33 232.09 109.96 227.2 103.24C222.31 96.5201 215.53 111.36 215.53 111.36L220.2 114.33Z" fill="#F4A28C"/>
<path d="M126.83 86.2L120.17 79.31C119.484 78.593 118.953 77.743 118.609 76.8124C118.265 75.8819 118.115 74.8906 118.17 73.9C118.33 70.39 119.08 64.8 121.98 60.6C126.54 54.02 132.6 51.53 134.11 57.22C135.62 62.91 135.92 56.15 139.59 59.22C143.26 62.29 142.51 64.02 139.59 65.62C136.67 67.22 130.64 69.54 130.1 74.35C129.56 79.16 134.09 83 126.83 86.2Z" fill="#24285B"/>
<path d="M192.65 93.65L203.19 69.44L210.06 78.23L223.41 71.87L229.24 81.72L243.62 79.66L235.08 107.17L221.11 110.77L214.69 100.25L201.31 103.93L192.65 93.65Z" fill="#FFD200"/>
<path opacity="0.2" d="M203.86 75.43L196.23 92.39L202.61 100.36L216.37 95.78L221.99 107.91L232.63 104.89L239.51 83.16L227.16 85.28L221.99 75.43L209.49 81.79L203.86 75.43Z" fill="white"/>
<path opacity="0.08" d="M210.06 78.23L201.31 103.93L214.69 100.25L223.41 71.87L210.06 78.23Z" fill="black"/>
<path opacity="0.08" d="M229.24 81.72L221.11 110.77L235.08 107.17L243.62 79.66L229.24 81.72Z" fill="black"/>
<path d="M187 94.69C187 94.69 188.33 88.63 191 87.07C193.67 85.51 199.15 86.74 196.81 90.07C194.47 93.4 191 98.2 191 98.2L187 94.69Z" fill="#F4A28C"/>
<path d="M125.05 213.46H54.4299V265.73H125.05V213.46Z" fill="#C9C9C9"/>
<path opacity="0.08" d="M112.81 213.46L95.1799 265.73H119.68L127.68 238.5L125.05 213.46H112.81Z" fill="black"/>
<path d="M174.58 180.45L168.6 258.6H159.14L150.71 197.88L129.81 183.98L174.58 180.45Z" fill="#24285B"/>
<path d="M129.81 183.98L116.76 258.6H126.9L148.79 196.6L129.81 183.98Z" fill="#24285B"/>
<path d="M118.6 258.6L112.32 263.23C112.086 263.403 111.913 263.645 111.825 263.921C111.737 264.198 111.738 264.496 111.829 264.772C111.92 265.048 112.096 265.288 112.331 265.458C112.566 265.628 112.85 265.72 113.14 265.72H123.67C123.852 265.721 124.032 265.687 124.2 265.618C124.368 265.549 124.52 265.447 124.649 265.319C124.777 265.19 124.879 265.038 124.948 264.87C125.017 264.702 125.051 264.522 125.05 264.34V258.6H118.6Z" fill="#F7809C"/>
<path d="M168.33 258.6L174.25 263.23C174.48 263.408 174.649 263.653 174.732 263.932C174.815 264.211 174.809 264.509 174.714 264.784C174.619 265.059 174.44 265.297 174.203 265.465C173.965 265.633 173.681 265.722 173.39 265.72H165.89C164.829 265.72 163.812 265.299 163.061 264.548C162.311 263.798 161.89 262.781 161.89 261.72V258.6H168.33Z" fill="#F7809C"/>
<path d="M297.63 108.69H291.8V261.96H297.63V108.69Z" fill="#FFD200"/>
<path opacity="0.49" d="M72.2901 221.29H64.6001V228.98H72.2901V221.29Z" fill="#E6E6E6"/>
<path opacity="0.49" d="M77.25 227.81L83.93 223.44V231.69L77.25 227.81Z" fill="#E6E6E6"/>
<path opacity="0.49" d="M75.1799 246.84C79.184 246.84 82.4299 243.594 82.4299 239.59C82.4299 235.586 79.184 232.34 75.1799 232.34C71.1759 232.34 67.9299 235.586 67.9299 239.59C67.9299 243.594 71.1759 246.84 75.1799 246.84Z" fill="#E6E6E6"/>
<path d="M268.18 144.13H302.8V131.69H268.18V144.13Z" fill="#24285B"/>
<path d="M268.18 128.18V147.69L252.43 137.91L268.18 128.18Z" fill="#24285B"/>
<path d="M321.52 102.45H286.9V114.89H321.52V102.45Z" fill="#24285B"/>
<path d="M321.52 98.9301V118.45L337.27 108.67L321.52 98.9301Z" fill="#24285B"/>
<path d="M292.18 261.29C292.18 261.29 301.7 247.6 287.51 243.83C273.32 240.06 290.93 221.62 277.71 219.2C264.49 216.78 266.71 236.28 266.71 236.28C266.71 236.28 257.59 228.42 251.3 235.02C245.01 241.62 253.82 248.87 253.82 248.87C253.82 248.87 241.11 253.26 249.03 261.29H292.18Z" fill="#E6E6E6"/>
<path d="M273.1 263.11C273.1 263.11 279.1 252.77 288.05 254.04C297 255.31 296 263.11 296 263.11H273.1Z" fill="#C9C9C9"/>
<path d="M316.18 106.67H299.55V110.78H316.18V106.67Z" fill="white"/>
<path d="M289.43 135.88H272.8V139.99H289.43V135.88Z" fill="white"/>
</svg>
