<svg width="305" height="300" viewBox="0 0 305 300" fill="none" xmlns="http://www.w3.org/2000/svg">
<g clip-path="url(#clip0)">
<path opacity="0.18" d="M304.344 205.396C304.257 207.997 304.101 210.598 303.841 213.251C302.003 232.457 295.248 251.636 280.691 263.991C263.402 278.653 238.881 280.812 216.225 279.98C193.569 279.147 170.332 276.078 148.647 282.694C136.777 286.318 125.913 292.717 114.069 296.41C91.5259 303.434 66.1646 299.957 45.9277 287.844C25.6907 275.731 10.76 255.355 4.49125 232.621C3.31945 228.346 2.41023 224.002 1.7687 219.616C-1.80355 195.598 1.69934 170.627 1.18778 146.133C0.73691 124.361 -2.82667 101.818 4.97679 81.4682C10.1791 67.9162 20.0808 56.7312 31.4132 47.8786C71.0635 16.9682 120.997 0.320802 171.009 0.00866299C200.8 -0.182088 231.251 4.56936 257.393 18.8584C265.89 23.4971 273.962 29.263 279.936 36.8237C284.384 42.4769 287.558 49.0318 290.168 55.7254C294.682 67.347 297.599 79.5275 298.838 91.9335C300.433 108.052 299.176 124.318 299.818 140.488C300.711 162.182 304.977 183.711 304.344 205.396Z" fill="#F7809C"/>
<path d="M303.841 213.251L303.737 214.275C302.202 228.893 297.798 243.434 289.222 254.879C286.736 258.219 283.877 261.265 280.699 263.957C263.41 278.619 238.89 280.777 216.234 279.945C193.578 279.113 170.341 276.043 148.656 282.659C136.786 286.283 125.922 292.682 114.078 296.376C91.5346 303.399 66.1733 299.922 45.9363 287.809C32.6234 279.723 21.5842 268.385 13.8554 254.861C9.80885 247.87 6.67081 240.39 4.51722 232.604C3.34542 228.328 2.43621 223.985 1.79468 219.598L116.48 217.179L303.841 213.251Z" fill="#F7809C"/>
<path d="M303.737 214.275C302.202 228.893 297.798 243.434 289.223 254.879H13.8295C9.78297 247.887 6.64493 240.407 4.49134 232.621C3.31954 228.346 2.41033 224.002 1.7688 219.616L116.454 217.197L303.737 214.275Z" fill="url(#paint0_linear)"/>
<path d="M71.419 274.899C94.8496 274.899 113.844 269.301 113.844 262.396C113.844 255.491 94.8496 249.893 71.419 249.893C47.9884 249.893 28.9941 255.491 28.9941 262.396C28.9941 269.301 47.9884 274.899 71.419 274.899Z" fill="url(#paint1_linear)"/>
<path d="M79.8293 251.965L80.3409 257.28C80.3409 257.28 78.3033 260.367 75.6415 260.558C72.9796 260.749 72.0779 259.483 72.0779 259.483L72.5201 251.679" fill="#EACBC6"/>
<path d="M72.0779 259.483L72.26 256.344L80.0634 254.246L80.6617 258.512C79.202 259.62 77.4768 260.326 75.6588 260.558C72.9883 260.757 72.0779 259.483 72.0779 259.483Z" fill="white"/>
<path d="M54.9363 252.529L54.416 257.991C54.416 257.991 56.5056 261.156 59.2368 261.355C61.968 261.555 62.8958 260.246 62.8958 260.246L62.4449 252.217" fill="#EACBC6"/>
<path d="M62.8958 260.246L62.7137 257.02L54.7108 254.861L54.416 257.983C54.416 257.983 56.5056 261.147 59.2368 261.347C61.968 261.546 62.8958 260.246 62.8958 260.246Z" fill="white"/>
<path d="M61.4739 133.101C61.4739 133.101 50.9306 138.234 50.6791 139.881C50.4277 141.529 51.867 182.688 51.867 182.688C51.867 182.688 55.3352 187.136 65.8005 187.136C76.5607 187.136 79.3352 184.058 79.8121 182.618C80.289 181.179 82.0057 140.202 81.763 138.442C81.5202 136.682 71.7832 133.127 71.7832 133.127L61.4739 133.101Z" fill="#F7809C"/>
<path d="M77.2715 152.471L75.1125 184.379L79.812 182.618L80.4709 172.439L77.2715 152.471Z" fill="url(#paint2_linear)"/>
<path d="M67.7601 161.384C67.7601 161.384 55.3266 161.488 54.5375 160.699C53.7485 159.91 50.7659 139.249 50.6792 139.89C50.5058 141.095 51.1994 160.838 51.5982 171.85C56.1211 170.394 60.5587 168.687 64.8901 166.734C66.0811 166.226 67.1034 165.39 67.8381 164.324C68.5144 163.318 68.9046 162.13 67.7601 161.384Z" fill="url(#paint3_linear)"/>
<path d="M63.2253 127.275C62.7735 129.252 62.1943 131.198 61.4911 133.101C60.7975 134.991 62.2195 138.98 66.5027 138.98C70.7859 138.98 71.2802 134.055 71.2021 133.101C71.1501 132.416 70.0403 130.153 69.7628 127.968C69.4594 125.618 63.4594 125.636 63.2253 127.275Z" fill="#EACBC6"/>
<path d="M64.1272 139.89L65.948 142.439L64.6474 176.853L68.107 180.659L70.526 175.986L67.6734 142.014L68.3237 139.509L66.4075 138.321L64.1272 139.89Z" fill="#3F3D56"/>
<path d="M69.0087 158.116L69.4335 152.012L79.2312 149.593L76.1185 168.616L68.3931 169.535L69.0087 158.116Z" fill="white"/>
<path d="M62.6357 129.997C62.6357 129.997 62.6357 136.569 66.26 135.988C69.8843 135.407 70.4739 130.396 70.4739 130.396L62.6357 129.997Z" fill="url(#paint4_linear)"/>
<path d="M53.5318 183.251C53.5318 183.251 51.4248 190.465 52.6647 213.546C53.9046 236.627 54.3988 252.772 54.3988 252.772C54.3988 252.772 54.5549 254.653 58.526 254.705C62.4971 254.757 63.5549 252.104 63.5549 252.104L67.4046 192.98L71.4624 253.353C71.4624 253.353 76.2312 256.101 79.9508 254.038C82.0057 252.902 81.8237 210.798 80.8959 192.243C80.7752 189.215 80.0376 186.244 78.7283 183.512C78.7283 183.512 68.6792 190.188 53.5318 183.251Z" fill="#3F3D56"/>
<path d="M81.7629 138.442C81.7629 138.442 86.5664 158.601 86.9652 162.026C87.3641 165.451 82.1444 174.98 81.2774 173.168C80.0635 170.801 78.8496 161.809 78.8496 161.809L81.7629 138.442Z" fill="#F7809C"/>
<path d="M90.442 161.272C90.4384 161.434 90.4804 161.594 90.5632 161.733C90.646 161.873 90.7662 161.986 90.9102 162.061C91.0816 162.104 91.26 162.112 91.4345 162.084C91.609 162.055 91.7758 161.991 91.9247 161.896C94.3177 160.76 95.7137 159.104 97.4998 157.318C98.8784 156.102 100.109 154.729 101.167 153.225C101.982 151.864 101.297 145.916 100.508 145.821C99.7194 145.725 99.8408 147.633 99.9796 148.821C100.118 150.009 98.8264 151.422 98.5056 151.994C98.1848 152.566 97.0923 151.517 96.1125 153.147C95.3929 154.353 95.3669 155.246 94.309 156.234C93.0547 157.388 91.927 158.673 90.9449 160.066C90.6986 160.362 90.5289 160.713 90.4507 161.09C90.4435 161.15 90.4406 161.211 90.442 161.272Z" fill="#EACBC6"/>
<path d="M82.526 162.512C82.6907 162.234 94.2138 155.575 94.2138 155.575C94.2138 155.575 95.7052 156.485 96.815 159.286C96.815 159.286 82.9422 172.682 81.7976 173.28C80.6531 173.879 82.2745 171.113 80.3323 167.35C78.3901 163.587 82.526 162.512 82.526 162.512Z" fill="#F7809C"/>
<path d="M48.893 261.91C47.8974 262.58 47.0696 263.47 46.4739 264.512C46.1909 265.041 46.096 265.651 46.2047 266.242C46.3134 266.832 46.6192 267.369 47.0722 267.763C47.4748 268.014 47.9276 268.174 48.3988 268.231C50.3505 268.562 52.354 268.4 54.2272 267.759C56.1003 267.119 57.7836 266.02 59.1242 264.564C59.3398 264.281 59.6077 264.043 59.9132 263.861C60.5895 263.523 61.4392 263.861 62.1675 263.601C63.182 263.246 63.4941 261.98 63.6415 260.905C63.7889 259.829 63.9103 258.52 63.156 257.697C62.3756 258.988 60.6849 259.37 59.1762 259.431C58.2599 259.528 57.3332 259.437 56.4537 259.162C55.6386 258.867 54.9797 258 54.0433 258.121C53.1068 258.243 52.3092 259.188 51.6502 259.708L48.893 261.91Z" fill="#3F3D56"/>
<path d="M86.2889 261.91C87.2845 262.58 88.1123 263.47 88.708 264.512C88.991 265.041 89.0859 265.651 88.9772 266.242C88.8685 266.832 88.5627 267.369 88.1097 267.763C87.7071 268.014 87.2543 268.174 86.7831 268.231C84.8348 268.56 82.8352 268.398 80.9654 267.759C79.0956 267.12 77.4148 266.025 76.075 264.572C75.8594 264.29 75.5916 264.051 75.286 263.87C74.6097 263.532 73.76 263.87 73.0317 263.61C72.0172 263.254 71.7051 261.988 71.5577 260.913C71.4103 259.838 71.2889 258.529 72.0433 257.705C72.8236 258.997 74.5144 259.379 76.023 259.439C76.9394 259.537 77.866 259.445 78.7456 259.171C79.5606 258.876 80.2196 258.009 81.156 258.13C82.0924 258.251 82.8901 259.197 83.549 259.717L86.2889 261.91Z" fill="#3F3D56"/>
<path d="M63.1212 159.347C63.4854 159.095 63.9883 158.991 64.4045 158.697C64.8207 158.402 69.8756 155.029 70.2658 155.922C70.4392 156.33 70.0663 156.789 69.7108 157.049C69.3553 157.309 68.9392 157.673 69.0172 158.124L74.1501 155.593C74.2348 155.537 74.3358 155.513 74.4363 155.523C74.6097 155.523 74.679 155.757 74.7137 155.939C74.8853 157.219 74.5526 158.516 73.786 159.555C72.51 161.271 70.7403 162.557 68.7137 163.24C66.1126 164.107 63.7282 165.303 63.0692 163.318C62.7744 162.451 62.2629 161.02 62.5923 160.066C62.6814 159.773 62.8681 159.519 63.1212 159.347Z" fill="#EACBC6"/>
<path d="M52.6645 137.965C51.1643 138.996 49.8679 140.295 48.8408 141.798C47.1674 144.269 44.4015 164.991 45.6761 170.61C46.2137 172.986 65.7657 164.116 65.7657 164.116C65.7657 164.116 65.3148 160.145 63.2426 158.792C63.2426 158.792 53.653 160.847 52.9333 160.127C52.2137 159.408 52.6645 137.965 52.6645 137.965Z" fill="#F7809C"/>
<path d="M59.4016 118.699C59.4016 118.699 59.1761 127.691 62.6357 129.971C66.0952 132.251 67.4738 131.931 69.9536 130.777C71.4536 130.075 72.5547 124.578 73.1877 120.373C73.4983 118.45 73.1265 116.48 72.1368 114.803C71.147 113.126 69.6017 111.848 67.7686 111.191C66.4843 110.701 65.0645 110.701 63.7802 111.191C62.2853 111.73 61.0276 112.777 60.2271 114.15C59.4267 115.523 59.1344 117.133 59.4016 118.699Z" fill="#EACBC6"/>
<path d="M73.2485 120.026C73.45 119.575 73.5928 119.1 73.6734 118.613C73.8342 116.984 73.6541 115.339 73.1445 113.783C72.9676 112.872 72.6487 111.994 72.1994 111.182C71.7551 110.485 71.1243 109.926 70.3786 109.569C69.9797 109.569 69.6156 109.162 69.3208 108.893C69.0109 108.663 68.6568 108.5 68.2808 108.413C67.9048 108.327 67.515 108.319 67.1358 108.39C66.3728 108.477 65.6358 108.72 64.8641 108.789C63.5549 108.91 62.0462 108.564 61.0404 109.413C60.5214 110.005 60.0999 110.675 59.7919 111.399C59.4364 111.997 58.9248 112.491 58.526 113.055C58.0777 113.598 57.8407 114.285 57.8583 114.988C58.0061 115.608 58.2122 116.212 58.474 116.792C58.6201 117.754 58.7099 118.724 58.7427 119.697C58.9508 120.815 59.6098 121.829 59.6098 122.957L59.8439 117.009C59.8295 116.844 59.8626 116.678 59.9393 116.532C60.1214 116.237 60.5289 116.22 60.867 116.133C61.6734 115.925 62.2456 115.179 63.026 114.884C63.5708 114.721 64.1438 114.674 64.7081 114.746L68.9826 114.954C69.2389 114.949 69.4923 115.009 69.7196 115.127C69.8828 115.258 70.0364 115.399 70.1791 115.552C70.656 115.942 71.367 115.864 71.9133 116.176C72.6589 116.61 72.7803 117.616 72.8237 118.483L72.9797 121.699C72.9424 121.128 73.0343 120.557 73.2485 120.026Z" fill="#3F3D56"/>
<path d="M61.7514 132.399C61.7514 132.399 63.9017 137.549 66.4075 138.329L62.0722 141.321L60.6069 133.517L61.7514 132.399Z" fill="#F7809C"/>
<path d="M70.8727 132.165L71.7397 133.092L71.0461 141.113L66.364 138.295C66.364 138.295 70.2657 135.572 70.8727 132.165Z" fill="#F7809C"/>
<path d="M61.7514 132.399C61.7514 132.399 63.9017 137.549 66.4075 138.329L62.0722 141.321L60.6069 133.517L61.7514 132.399Z" fill="url(#paint5_linear)"/>
<path d="M70.8727 132.165L71.7397 133.092L71.0461 141.113L66.364 138.295C66.364 138.295 70.2657 135.572 70.8727 132.165Z" fill="url(#paint6_linear)"/>
<path d="M167.879 190.751C169.006 201.269 165.277 222.902 153.607 227.168C150.737 228.217 147.624 228.347 144.564 228.442C132.598 228.835 120.627 228.934 108.65 228.737C103.861 228.76 99.0762 228.429 94.3353 227.749C92.0289 227.367 89.6445 226.786 87.8497 225.286C84.8237 222.737 84.3295 217.873 86.3671 214.474C88.4046 211.075 92.5145 209.272 96.4682 209.402C94.8656 209.512 93.2631 209.182 91.8347 208.447C90.4062 207.712 89.2062 206.6 88.3648 205.232C87.5233 203.863 87.0725 202.291 87.0612 200.684C87.0499 199.078 87.4785 197.499 88.3006 196.118C91.0838 191.454 97.2659 190.396 102.668 189.815C99.2688 185.74 96.737 180.72 96.5983 175.413C96.4596 170.107 99.1127 164.549 103.864 162.182C108.616 159.815 115.292 161.523 117.538 166.335C115.803 157.327 118.162 147.425 124.413 140.705C130.032 134.636 141.408 129.893 149.558 133.526C157.361 136.994 160.266 148.838 161.991 156.243C164.654 167.615 166.62 179.139 167.879 190.751Z" fill="#F7809C"/>
<path d="M167.879 190.751C169.006 201.269 165.277 222.902 153.607 227.168C150.737 228.217 147.624 228.347 144.564 228.442C132.598 228.835 120.627 228.934 108.65 228.737C103.861 228.76 99.0762 228.429 94.3353 227.749C92.0289 227.367 89.6445 226.786 87.8497 225.286C84.8237 222.737 84.3295 217.873 86.3671 214.474C88.4046 211.075 92.5145 209.272 96.4682 209.402C94.8656 209.512 93.2631 209.182 91.8347 208.447C90.4062 207.712 89.2062 206.6 88.3648 205.232C87.5233 203.863 87.0725 202.291 87.0612 200.684C87.0499 199.078 87.4785 197.499 88.3006 196.118C91.0838 191.454 97.2659 190.396 102.668 189.815C99.2688 185.74 96.737 180.72 96.5983 175.413C96.4596 170.107 99.1127 164.549 103.864 162.182C108.616 159.815 115.292 161.523 117.538 166.335C115.803 157.327 118.162 147.425 124.413 140.705C130.032 134.636 141.408 129.893 149.558 133.526C157.361 136.994 160.266 148.838 161.991 156.243C164.654 167.615 166.62 179.139 167.879 190.751Z" fill="url(#paint7_linear)"/>
<path d="M253.812 73.8815H236.471V117.225H253.812V73.8815Z" fill="#F7809C"/>
<path d="M253.812 73.8815H236.471V117.225H253.812V73.8815Z" fill="url(#paint8_linear)"/>
<path d="M255.338 67.7341H234.936C233.825 67.7341 232.925 68.6347 232.925 69.7457V74.0289C232.925 75.1399 233.825 76.0405 234.936 76.0405H255.338C256.449 76.0405 257.35 75.1399 257.35 74.0289V69.7457C257.35 68.6347 256.449 67.7341 255.338 67.7341Z" fill="#F7809C"/>
<path d="M192.763 63.0433L130.274 125.246V142.864V224.861H262.474V142.864V131.124L192.763 63.0433Z" fill="#F7809C"/>
<path d="M192.763 63.0433L130.274 125.246V142.864V224.861H262.474V142.864V131.124L192.763 63.0433Z" fill="url(#paint9_linear)"/>
<g style="mix-blend-mode:multiply" opacity="0.2">
<g style="mix-blend-mode:multiply" opacity="0.2">
<path d="M194.575 58.8035L130.283 122.913V133.118L194.575 72.1647L262.491 136.552V130.136C262.87 130.138 263.241 130.026 263.555 129.814C263.87 129.602 264.112 129.3 264.252 128.948C264.392 128.595 264.422 128.209 264.338 127.839C264.254 127.469 264.061 127.134 263.783 126.876L194.575 58.8035Z" fill="#F7809C"/>
</g>
</g>
<path d="M267.624 224.861H125.133V235.335H267.624V224.861Z" fill="#F7809C"/>
<path d="M197.913 158.671H146.983V200.931H197.913V158.671Z" fill="#F7809C"/>
<path d="M197.913 158.671H146.983V200.931H197.913V158.671Z" fill="url(#paint10_linear)"/>
<path d="M248.835 156.772H215.246V224.861H248.835V156.772Z" fill="#F7809C"/>
<path d="M246.121 161.107H217.968V221.332H246.121V161.107Z" fill="#F7809C"/>
<path d="M246.121 161.107H217.968V221.332H246.121V161.107Z" fill="url(#paint11_linear)"/>
<path d="M249.815 152.983H214.457C213.647 152.983 212.991 153.639 212.991 154.448V157.205C212.991 158.014 213.647 158.671 214.457 158.671H249.815C250.624 158.671 251.28 158.014 251.28 157.205V154.448C251.28 153.639 250.624 152.983 249.815 152.983Z" fill="#F7809C"/>
<path d="M191.584 58.7341L122.679 125.749C122.087 126.352 121.685 127.115 121.521 127.944C121.357 128.773 121.439 129.632 121.757 130.415C122.075 131.198 122.615 131.871 123.31 132.351C124.005 132.832 124.826 133.098 125.671 133.118C126.775 133.12 127.838 132.694 128.636 131.931L191.618 72C192.415 71.2399 193.474 70.8158 194.575 70.8158C195.676 70.8158 196.735 71.2399 197.532 72L260.514 131.931C261.31 132.693 262.369 133.118 263.471 133.118C264.316 133.098 265.136 132.832 265.832 132.351C266.527 131.871 267.067 131.198 267.385 130.415C267.702 129.632 267.784 128.773 267.621 127.944C267.457 127.115 267.054 126.352 266.462 125.749L197.566 58.7341C196.766 57.9534 195.693 57.5165 194.575 57.5165C193.457 57.5165 192.384 57.9534 191.584 58.7341Z" fill="#F7809C"/>
<path d="M199.379 156.772H145.517V158.67H199.379V156.772Z" fill="#F7809C"/>
<path d="M161.115 158.671H159.399V197.41H161.115V158.671Z" fill="#F7809C"/>
<path d="M173.306 158.671H171.589V197.41H173.306V158.671Z" fill="#F7809C"/>
<path d="M185.497 158.671H183.78V197.41H185.497V158.671Z" fill="#F7809C"/>
<path d="M197.913 179.081H146.983V180.529H197.913V179.081Z" fill="#F7809C"/>
<path d="M196.361 198.061C197.185 197.63 197.883 196.993 198.386 196.212C198.889 195.431 199.18 194.532 199.231 193.604C199.231 192.737 198.928 191.749 198.104 191.627C197.754 191.611 197.406 191.692 197.098 191.861C196.162 192.305 195.327 192.937 194.645 193.717C194.896 192.874 194.999 191.994 194.948 191.116C194.951 190.63 194.8 190.155 194.517 189.76C194.233 189.366 193.832 189.071 193.37 188.919C192.909 188.766 192.411 188.764 191.948 188.913C191.485 189.062 191.081 189.353 190.795 189.746C190.134 190.539 189.666 191.473 189.425 192.477C188.881 191.024 187.937 189.756 186.702 188.818C186.496 188.646 186.253 188.524 185.991 188.462C185.688 188.445 185.387 188.518 185.124 188.67C184.359 189.063 183.71 189.649 183.241 190.37C182.773 191.091 182.501 191.922 182.454 192.78C182.37 192.471 182.194 192.194 181.949 191.987C181.704 191.779 181.403 191.651 181.084 191.618C180.927 191.615 180.771 191.648 180.628 191.713C180.485 191.778 180.358 191.874 180.257 191.995C180.157 192.116 180.084 192.258 180.046 192.41C180.007 192.562 180.003 192.722 180.035 192.876C179.432 192.247 178.671 191.792 177.833 191.557C176.994 191.322 176.108 191.316 175.266 191.54C174.436 191.802 173.726 192.348 173.259 193.083C172.793 193.817 172.601 194.693 172.717 195.555C172.511 195.471 172.29 195.434 172.068 195.445C171.847 195.456 171.63 195.515 171.433 195.618C171.237 195.721 171.065 195.866 170.931 196.042C170.796 196.218 170.701 196.422 170.653 196.639C170.584 197.085 170.613 197.541 170.737 197.975C170.861 198.409 171.078 198.811 171.373 199.153" fill="#F7809C"/>
<path d="M147.399 197.974L145.439 196.327C145.01 196.04 144.701 195.604 144.572 195.104C144.485 194.237 145.439 193.673 146.306 193.812C147.113 194.038 147.831 194.507 148.361 195.156C148.118 193.353 147.988 191.246 149.315 189.954C149.846 189.517 150.491 189.242 151.174 189.164C151.857 189.085 152.549 189.206 153.165 189.512C154.387 190.153 155.347 191.202 155.879 192.477C156.477 190.578 157.642 188.908 159.217 187.691C159.326 187.566 159.462 187.466 159.614 187.4C159.767 187.334 159.932 187.303 160.098 187.309C160.264 187.315 160.427 187.357 160.574 187.434C160.722 187.51 160.85 187.619 160.951 187.751C161.609 188.38 162.13 189.138 162.479 189.979C162.828 190.819 162.999 191.723 162.98 192.633C163.227 192.065 163.532 191.525 163.89 191.02C163.978 190.861 164.119 190.738 164.289 190.673C164.558 190.595 164.809 190.803 165.009 190.994C165.529 191.506 166.049 192.182 165.876 192.884C166.162 191.732 166.762 190.682 167.61 189.85C168.477 189.095 170.089 189.026 170.74 190.006C171.035 190.533 171.145 191.143 171.052 191.74C170.934 193.01 170.525 194.235 169.855 195.321C169.855 194.896 170.497 194.731 170.835 194.983C170.989 195.127 171.103 195.307 171.169 195.507C171.234 195.707 171.247 195.92 171.208 196.127C171.208 196.543 171.017 196.951 171 197.376" fill="#F7809C"/>
<path d="M196.361 198.061C197.185 197.63 197.883 196.993 198.386 196.212C198.889 195.431 199.18 194.532 199.231 193.604C199.231 192.737 198.928 191.749 198.104 191.627C197.754 191.611 197.406 191.692 197.098 191.861C196.162 192.305 195.327 192.937 194.645 193.717C194.896 192.874 194.999 191.994 194.948 191.116C194.951 190.63 194.8 190.155 194.517 189.76C194.233 189.366 193.832 189.071 193.37 188.919C192.909 188.766 192.411 188.764 191.948 188.913C191.485 189.062 191.081 189.353 190.795 189.746C190.134 190.539 189.666 191.473 189.425 192.477C188.881 191.024 187.937 189.756 186.702 188.818C186.496 188.646 186.253 188.524 185.991 188.462C185.688 188.445 185.387 188.518 185.124 188.67C184.359 189.063 183.71 189.649 183.241 190.37C182.773 191.091 182.501 191.922 182.454 192.78C182.37 192.471 182.194 192.194 181.949 191.987C181.704 191.779 181.403 191.651 181.084 191.618C180.927 191.615 180.771 191.648 180.628 191.713C180.485 191.778 180.358 191.874 180.257 191.995C180.157 192.116 180.084 192.258 180.046 192.41C180.007 192.562 180.003 192.722 180.035 192.876C179.432 192.247 178.671 191.792 177.833 191.557C176.994 191.322 176.108 191.316 175.266 191.54C174.436 191.802 173.726 192.348 173.259 193.083C172.793 193.817 172.601 194.693 172.717 195.555C172.511 195.471 172.29 195.434 172.068 195.445C171.847 195.456 171.63 195.515 171.433 195.618C171.237 195.721 171.065 195.866 170.931 196.042C170.796 196.218 170.701 196.422 170.653 196.639C170.584 197.085 170.613 197.541 170.737 197.975C170.861 198.409 171.078 198.811 171.373 199.153" fill="url(#paint12_linear)"/>
<path d="M197.757 197.41H147.147C145.376 197.41 143.939 198.847 143.939 200.618V206.124C143.939 207.896 145.376 209.332 147.147 209.332H197.757C199.529 209.332 200.965 207.896 200.965 206.124V200.618C200.965 198.847 199.529 197.41 197.757 197.41Z" fill="#F7809C"/>
<path d="M147.399 197.974L145.439 196.327C145.01 196.04 144.701 195.604 144.572 195.104C144.485 194.237 145.439 193.673 146.306 193.812C147.113 194.038 147.831 194.507 148.361 195.156C148.118 193.353 147.988 191.246 149.315 189.954C149.846 189.517 150.491 189.242 151.174 189.164C151.857 189.085 152.549 189.206 153.165 189.512C154.387 190.153 155.347 191.202 155.879 192.477C156.477 190.578 157.642 188.908 159.217 187.691C159.326 187.566 159.462 187.466 159.614 187.4C159.767 187.334 159.932 187.303 160.098 187.309C160.264 187.315 160.427 187.357 160.574 187.434C160.722 187.51 160.85 187.619 160.951 187.751C161.609 188.38 162.13 189.138 162.479 189.979C162.828 190.819 162.999 191.723 162.98 192.633C163.227 192.065 163.532 191.525 163.89 191.02C163.978 190.861 164.119 190.738 164.289 190.673C164.558 190.595 164.809 190.803 165.009 190.994C165.529 191.506 166.049 192.182 165.876 192.884C166.162 191.732 166.762 190.682 167.61 189.85C168.477 189.095 170.089 189.026 170.74 190.006C171.035 190.533 171.145 191.143 171.052 191.74C170.934 193.01 170.525 194.235 169.855 195.321C169.855 194.896 170.497 194.731 170.835 194.983C170.989 195.127 171.103 195.307 171.169 195.507C171.234 195.707 171.247 195.92 171.208 196.127C171.208 196.543 171.017 196.951 171 197.376" fill="url(#paint13_linear)"/>
<path d="M164.714 203.905H157.344V255.607H164.714V203.905Z" fill="#F7809C"/>
<path d="M164.714 203.905H157.344V255.607H164.714V203.905Z" fill="url(#paint14_linear)"/>
<path d="M182.35 206.584H136.89V231.59H182.35V206.584Z" fill="#F7809C"/>
<path d="M182.159 206.584H136.699V231.59H182.159V206.584Z" fill="url(#paint15_linear)"/>
<path d="M144.772 216.659C144.57 216.385 144.309 216.159 144.009 216C143.665 215.825 143.284 215.738 142.899 215.749C142.667 215.75 142.436 215.785 142.214 215.853C141.989 215.919 141.778 216.025 141.589 216.165C141.401 216.31 141.245 216.493 141.13 216.702C141.01 216.935 140.95 217.195 140.957 217.457C140.95 217.707 141.006 217.954 141.121 218.176C141.233 218.365 141.384 218.527 141.563 218.653C141.757 218.794 141.97 218.905 142.196 218.983L142.925 219.243C143.246 219.338 143.558 219.451 143.879 219.572C144.188 219.688 144.479 219.846 144.746 220.04C145.007 220.236 145.22 220.488 145.37 220.777C145.545 221.123 145.628 221.509 145.613 221.896C145.623 222.302 145.534 222.703 145.353 223.066C145.194 223.385 144.966 223.663 144.685 223.882C144.402 224.098 144.082 224.26 143.74 224.358C143.391 224.461 143.029 224.514 142.665 224.514C142.373 224.519 142.082 224.49 141.798 224.428C141.529 224.374 141.267 224.29 141.017 224.176C140.767 224.068 140.533 223.925 140.324 223.751C140.108 223.583 139.918 223.385 139.76 223.162L140.558 222.572C140.773 222.913 141.072 223.193 141.425 223.387C141.801 223.615 142.234 223.73 142.673 223.717C142.914 223.715 143.153 223.68 143.384 223.613C143.618 223.537 143.838 223.423 144.035 223.275C144.228 223.125 144.388 222.936 144.503 222.72C144.636 222.488 144.702 222.224 144.694 221.957C144.704 221.681 144.638 221.408 144.503 221.168C144.38 220.958 144.211 220.78 144.009 220.647C143.793 220.495 143.557 220.375 143.306 220.292L142.439 220.006C142.144 219.916 141.854 219.809 141.572 219.685C141.284 219.575 141.017 219.417 140.783 219.217C140.55 219.021 140.361 218.779 140.228 218.506C140.08 218.162 140.009 217.79 140.018 217.416C140.027 217.042 140.116 216.674 140.28 216.338C140.451 216.032 140.684 215.766 140.965 215.558C141.248 215.353 141.565 215.2 141.902 215.107C142.232 215.015 142.573 214.969 142.916 214.968C143.461 214.953 144.001 215.065 144.494 215.298C144.878 215.477 145.216 215.741 145.483 216.069L144.772 216.659Z" fill="white"/>
<path d="M150.52 224.28H149.506L153.433 215.202H154.3L158.202 224.28H157.179L156.173 221.896H151.509L150.52 224.28ZM151.855 221.046H155.844L153.85 216.269L151.855 221.046Z" fill="white"/>
<path d="M163.465 223.457H167.697V224.28H162.538V215.202H163.465V223.457Z" fill="white"/>
<path d="M172.907 223.457H177.772V224.28H171.98V215.202H177.616V216.017H172.907V219.139H177.303V219.962H172.907V223.457Z" fill="white"/>
</g>
<defs>
<linearGradient id="paint0_linear" x1="153.425" y1="149.107" x2="151.725" y2="320.705" gradientUnits="userSpaceOnUse">
<stop offset="0.01"/>
<stop offset="0.12" stop-opacity="0.75"/>
<stop offset="1" stop-opacity="0"/>
</linearGradient>
<linearGradient id="paint1_linear" x1="7065.58" y1="6400.07" x2="7057.25" y2="9247.48" gradientUnits="userSpaceOnUse">
<stop offset="0.01"/>
<stop offset="0.12" stop-opacity="0.75"/>
<stop offset="1" stop-opacity="0"/>
</linearGradient>
<linearGradient id="paint2_linear" x1="630.884" y1="6270.73" x2="485.351" y2="6274.58" gradientUnits="userSpaceOnUse">
<stop offset="0.01"/>
<stop offset="0.12" stop-opacity="0.75"/>
<stop offset="1" stop-opacity="0"/>
</linearGradient>
<linearGradient id="paint3_linear" x1="1249.7" y1="6100.18" x2="1956.7" y2="6005.39" gradientUnits="userSpaceOnUse">
<stop offset="0.01"/>
<stop offset="0.12" stop-opacity="0.75"/>
<stop offset="1" stop-opacity="0"/>
</linearGradient>
<linearGradient id="paint4_linear" x1="871.297" y1="973.816" x2="857.716" y2="1168.38" gradientUnits="userSpaceOnUse">
<stop offset="0.01"/>
<stop offset="0.12" stop-opacity="0.75"/>
<stop offset="1" stop-opacity="0"/>
</linearGradient>
<linearGradient id="paint5_linear" x1="632.485" y1="1415.56" x2="628.78" y2="1802.21" gradientUnits="userSpaceOnUse">
<stop offset="0.01"/>
<stop offset="0.12" stop-opacity="0.75"/>
<stop offset="1" stop-opacity="0"/>
</linearGradient>
<linearGradient id="paint6_linear" x1="631.029" y1="1419.42" x2="627.157" y2="1807.2" gradientUnits="userSpaceOnUse">
<stop offset="0.01"/>
<stop offset="0.12" stop-opacity="0.75"/>
<stop offset="1" stop-opacity="0"/>
</linearGradient>
<linearGradient id="paint7_linear" x1="19584.4" y1="25835.7" x2="7755.82" y2="17907.3" gradientUnits="userSpaceOnUse">
<stop offset="0.01"/>
<stop offset="0.12" stop-opacity="0.75"/>
<stop offset="1" stop-opacity="0"/>
</linearGradient>
<linearGradient id="paint8_linear" x1="5136.87" y1="3260.96" x2="5168.29" y2="6732.57" gradientUnits="userSpaceOnUse">
<stop offset="0.01"/>
<stop offset="0.12" stop-opacity="0.75"/>
<stop offset="1" stop-opacity="0"/>
</linearGradient>
<linearGradient id="paint9_linear" x1="31925.6" y1="51702.4" x2="22993.7" y2="-7525.1" gradientUnits="userSpaceOnUse">
<stop offset="0.01"/>
<stop offset="0.12" stop-opacity="0.75"/>
<stop offset="1" stop-opacity="0"/>
</linearGradient>
<linearGradient id="paint10_linear" x1="174.182" y1="145.474" x2="172.665" y2="175.526" gradientUnits="userSpaceOnUse">
<stop offset="0.02" stop-color="white" stop-opacity="0"/>
<stop offset="0.58" stop-color="white" stop-opacity="0.39"/>
<stop offset="1" stop-color="white"/>
</linearGradient>
<linearGradient id="paint11_linear" x1="7851.42" y1="17020" x2="7442.97" y2="13797.9" gradientUnits="userSpaceOnUse">
<stop offset="0.02" stop-color="white" stop-opacity="0"/>
<stop offset="0.58" stop-color="white" stop-opacity="0.39"/>
<stop offset="1" stop-color="white"/>
</linearGradient>
<linearGradient id="paint12_linear" x1="7061.91" y1="2497.44" x2="7037.9" y2="2828.57" gradientUnits="userSpaceOnUse">
<stop offset="0.01"/>
<stop offset="0.12" stop-opacity="0.75"/>
<stop offset="1" stop-opacity="0"/>
</linearGradient>
<linearGradient id="paint13_linear" x1="5766.27" y1="2428.21" x2="5740.61" y2="2758.28" gradientUnits="userSpaceOnUse">
<stop offset="0.01"/>
<stop offset="0.12" stop-opacity="0.75"/>
<stop offset="1" stop-opacity="0"/>
</linearGradient>
<linearGradient id="paint14_linear" x1="1402.94" y1="13868.3" x2="1820.11" y2="13870.8" gradientUnits="userSpaceOnUse">
<stop offset="0.01"/>
<stop offset="0.12" stop-opacity="0.75"/>
<stop offset="1" stop-opacity="0"/>
</linearGradient>
<linearGradient id="paint15_linear" x1="8278.96" y1="5783.62" x2="8444.17" y2="7651.87" gradientUnits="userSpaceOnUse">
<stop offset="0.01"/>
<stop offset="0.12" stop-opacity="0.75"/>
<stop offset="1" stop-opacity="0"/>
</linearGradient>
<clipPath id="clip0">
<rect width="304.405" height="300" fill="white"/>
</clipPath>
</defs>
</svg>
