<svg width="400" height="300" viewBox="0 0 400 300" fill="none" xmlns="http://www.w3.org/2000/svg">
<path opacity="0.3" d="M81.7699 83.39C53.0999 100.86 36.1099 132.9 38.7699 166.39C40.1799 183.48 46.5399 200 63.3499 209C108.18 233 303.9 233.45 332.86 191C361.82 148.55 351.05 88.16 288.06 63C233.46 41.18 155.82 38.3 81.7699 83.39Z" fill="#E6E6E6"/>
<path d="M283.69 206V180.64C283.69 179.408 284.178 178.227 285.048 177.355C285.918 176.484 287.098 175.993 288.33 175.99H306.82C308.051 175.993 309.232 176.484 310.102 177.355C310.971 178.227 311.46 179.408 311.46 180.64V206" stroke="#FFD200" stroke-width="2" stroke-miterlimit="10"/>
<path opacity="0.08" d="M283.69 206V180.64C283.69 179.408 284.178 178.227 285.048 177.355C285.918 176.484 287.098 175.993 288.33 175.99H306.82C308.051 175.993 309.232 176.484 310.102 177.355C310.971 178.227 311.46 179.408 311.46 180.64V206" stroke="black" stroke-width="2" stroke-miterlimit="10"/>
<path d="M159.26 145.74C159.26 145.74 140.92 153.1 146.85 174.42C152.78 195.74 153.33 198.05 166.56 196.74C179.79 195.43 171.22 174.42 171.22 174.42L159.26 145.74Z" fill="#FFD200"/>
<path d="M152.37 79.92C152.37 79.92 101.51 91.71 88.1299 121.51L133.18 124.91L144.72 117.91L152.37 79.92Z" fill="#F7809C"/>
<path opacity="0.46" d="M152.37 79.92C152.37 79.92 101.51 91.71 88.1299 121.51L133.18 124.91L144.72 117.91L152.37 79.92Z" fill="white"/>
<path opacity="0.45" d="M200.42 284.19C285.516 284.19 354.5 278.894 354.5 272.36C354.5 265.826 285.516 260.53 200.42 260.53C115.324 260.53 46.3401 265.826 46.3401 272.36C46.3401 278.894 115.324 284.19 200.42 284.19Z" fill="#E6E6E6"/>
<path d="M134.79 246.33C134.79 246.33 130.34 249.55 126.25 247.24C122.16 244.93 118.58 248.01 121.38 251.37C124.18 254.73 136.18 256.37 136.18 256.37L140.69 249.09L134.79 246.33Z" fill="#F7809C"/>
<path d="M215.08 260.56C215.08 260.56 217.02 265.71 221.7 266.03C226.38 266.35 227.7 270.91 223.49 272.17C219.28 273.43 208.37 268.17 208.37 268.17L208.63 259.6L215.08 260.56Z" fill="#F7809C"/>
<path opacity="0.58" d="M79.19 260.08C79.19 260.08 68.6 257.18 66.3 247.33C66.3 247.33 82.71 244.01 83.17 260.95L79.19 260.08Z" fill="#F7809C"/>
<path opacity="0.73" d="M80.49 259C80.49 259 73.09 247.3 79.6 236.36C79.6 236.36 92.08 244.29 86.53 259.02L80.49 259Z" fill="#F7809C"/>
<path d="M82.3999 259C82.3999 259 86.2999 246.65 98.1199 244.31C98.1199 244.31 100.33 252.31 90.4699 259.04L82.3999 259Z" fill="#F7809C"/>
<path d="M74.72 258.75L76.86 273.44L90.38 273.5L92.37 258.83L74.72 258.75Z" fill="#24285B"/>
<path d="M156.2 53.77C156.2 53.77 157.94 60.07 160.47 63.77C160.716 64.1256 161.03 64.4291 161.394 64.663C161.757 64.8968 162.164 65.0565 162.589 65.1327C163.015 65.2089 163.452 65.2002 163.874 65.107C164.296 65.0139 164.696 64.8382 165.05 64.59C166.88 63.29 168.98 61 168.46 57.51L168.31 51.51C168.155 50.3031 167.629 49.1739 166.805 48.2784C165.981 47.3829 164.9 46.765 163.71 46.51C159.34 45.28 155 50 156.2 53.77Z" fill="#F4A28C"/>
<path d="M169.43 54.63L177.9 74.3L166.73 78.19L165.05 62.32L169.43 54.63Z" fill="#F4A28C"/>
<path d="M170.86 55.92C170.906 56.0486 170.909 56.1889 170.867 56.3191C170.826 56.4493 170.742 56.5622 170.63 56.64C169.864 57.1992 168.936 57.4921 167.988 57.4741C167.04 57.456 166.124 57.1279 165.38 56.54C164.526 55.9104 163.874 55.0452 163.504 54.0504C163.135 53.0556 163.064 51.9746 163.3 50.94C161.577 51.9903 159.738 52.836 157.82 53.46C157.176 53.6793 156.5 53.7875 155.82 53.78L152.54 49.78C152.54 49.78 148.31 46.12 150.65 44.11C152.99 42.1 155.41 44.72 156.76 41.67C158.11 38.62 158.3 37.6 161.03 37.95C163.76 38.3 161.86 41.07 165.56 39.65C169.26 38.23 169.92 39.73 170.56 41.4C170.703 42.005 170.662 42.6391 170.44 43.22C169.203 47.3874 169.35 51.8435 170.86 55.92V55.92Z" fill="#24285B"/>
<path d="M164.66 56.6C164.66 56.6 163.83 54.23 165.66 53.75C167.49 53.27 168.72 56.75 166.43 57.91L164.66 56.6Z" fill="#F4A28C"/>
<path d="M157.5 57.6801L156.67 60.6801C156.606 60.8508 156.59 61.0358 156.624 61.2149C156.658 61.3941 156.74 61.5606 156.861 61.6966C156.983 61.8325 157.139 61.9326 157.313 61.9861C157.488 62.0396 157.673 62.0444 157.85 62.0001L160.36 61.5701L157.5 57.6801Z" fill="#F4A28C"/>
<path d="M305.71 173.73H289.35V179.03H305.71V173.73Z" fill="#24285B"/>
<path opacity="0.31" d="M165.31 64.43C165.31 64.43 166.75 63.94 169.03 61.1C169.03 61.1 170.08 65.25 165.77 69.1L165.31 64.43Z" fill="#CE8172"/>
<path d="M162.12 76.62L168.55 75.46C171.556 74.9171 174.533 74.2229 177.47 73.38C188.47 70.24 220.84 62.85 230.05 81.58C241.21 104.27 222.58 177.88 222.58 177.88H171.58C171.58 177.88 161.17 147.22 146.29 128.26C131.41 109.3 121 88.21 162.12 76.62Z" fill="#F7809C"/>
<path opacity="0.08" d="M152.37 79.92C152.37 79.92 149.81 96.24 172.23 83.92L166.48 75.92C161.626 76.651 156.885 77.995 152.37 79.92V79.92Z" fill="black"/>
<path d="M94.92 139.7C84.76 136.54 83.24 122.7 92.45 117.33C95.7924 115.448 99.5205 114.353 103.35 114.13C120.43 112.87 149.53 111.28 149.53 111.28C149.53 111.28 167.05 116.98 164.3 125.52C161.55 134.06 149.22 120.46 149.22 120.46C149.22 120.46 116.66 146.46 94.92 139.7Z" fill="#F4A28C"/>
<path d="M149.743 110.193L143.761 111.026L145.458 123.208L151.44 122.375L149.743 110.193Z" fill="#24285B"/>
<path d="M149.752 108.742L143.771 109.587L144.306 113.37L150.287 112.524L149.752 108.742Z" fill="#FFD200"/>
<path d="M166.48 75.84C166.48 75.84 158.72 82.98 167.69 84.51C176.66 86.04 177.47 73.38 177.47 73.38L166.48 75.84Z" fill="#F4A28C"/>
<path d="M171.63 177.88L133.18 246.33L143.11 253.24C143.11 253.24 164.35 217.79 189.64 199.98C190.458 199.41 191.398 199.039 192.385 198.898C193.372 198.756 194.379 198.848 195.324 199.166C196.269 199.484 197.126 200.019 197.827 200.728C198.528 201.438 199.053 202.301 199.36 203.25C206.2 224.4 206.78 261.25 206.78 261.25H218.5L222.58 177.91L171.63 177.88Z" fill="#24285B"/>
<path opacity="0.08" d="M171.63 177.88C171.63 177.88 190.78 162.88 197.55 141.47C197.91 140.383 198.549 139.41 199.401 138.645C200.254 137.881 201.292 137.353 202.412 137.114C203.531 136.874 204.694 136.932 205.785 137.28C206.876 137.628 207.856 138.256 208.63 139.1L226.83 158.78L230.5 138.21L217.19 96.09L192 79.92L187 99.43L171.63 177.88Z" fill="black"/>
<path d="M163.36 158.94C163.36 158.94 175.17 147.22 177.47 108.08C179.38 75.5201 184.05 69.1601 193.8 66.8801C208.86 63.3401 212.45 67.8201 217.19 74.5101C217.19 74.5101 193.11 76.0001 193.95 91.0701C194.79 106.14 191.44 159.82 171.63 177.88C171.63 177.88 162.44 177.11 163.36 158.94Z" fill="#FFD200"/>
<path opacity="0.46" d="M163.36 158.94C163.36 158.94 175.17 147.22 177.47 108.08C179.38 75.5201 184.05 69.1601 193.8 66.8801C208.86 63.3401 212.45 67.8201 217.19 74.5101C217.19 74.5101 193.11 76.0001 193.95 91.0701C194.79 106.14 191.44 159.82 171.63 177.88C171.63 177.88 162.44 177.11 163.36 158.94Z" fill="white"/>
<path d="M196.37 93.76C191.37 81.76 205.3 66.62 217.37 71.3C227.69 75.3 238.72 84.14 244.71 101.94C258.94 144.25 291 164.7 291 164.7C291 164.7 307.36 167.4 307.36 173.35C307.36 179.3 288.02 173.35 288.02 173.35C288.02 173.35 237.82 152.52 211.78 119.05C204 109 199.22 100.59 196.37 93.76Z" fill="#F4A28C"/>
<path d="M226.35 134.56C226.35 134.56 246.29 127.81 251.35 117.94C251.35 117.94 244.13 79.03 218.48 70.66C210.04 67.91 200.61 71 196.19 78.66C190.83 88 192 105.22 226.35 134.56Z" fill="#F7809C"/>
<path opacity="0.46" d="M226.35 134.56C226.35 134.56 246.29 127.81 251.35 117.94C251.35 117.94 244.13 79.03 218.48 70.66C210.04 67.91 200.61 71 196.19 78.66C190.83 88 192 105.22 226.35 134.56Z" fill="white"/>
<path d="M323.65 198.46H271.49V265.99H323.65V198.46Z" fill="#FFD200"/>
<path d="M284.84 265.99H278.47V272.36H284.84V265.99Z" fill="#24285B"/>
<path d="M315.8 265.99H309.43V272.36H315.8V265.99Z" fill="#24285B"/>
<path opacity="0.08" d="M287.39 211.01H280.14V251.36H287.39V211.01Z" fill="black"/>
<path opacity="0.08" d="M301.2 211.01H293.95V251.36H301.2V211.01Z" fill="black"/>
<path opacity="0.08" d="M314.17 211.01H306.92V251.36H314.17V211.01Z" fill="black"/>
<path d="M222.58 55.81C234.2 55.81 243.62 46.3901 243.62 34.77C243.62 23.1499 234.2 13.73 222.58 13.73C210.96 13.73 201.54 23.1499 201.54 34.77C201.54 46.3901 210.96 55.81 222.58 55.81Z" fill="#24285B"/>
<path d="M214.44 34.77L196.44 52.7L220.3 43.18L214.44 34.77Z" fill="#24285B"/>
<path d="M223.81 25.3H220.3V36.3801H223.81V25.3Z" fill="white"/>
<path d="M223.81 39.4301H220.3V42.9401H223.81V39.4301Z" fill="white"/>
</svg>
