<svg width="517" height="388" viewBox="0 0 517 388" fill="none" xmlns="http://www.w3.org/2000/svg">
<path d="M377.41 200.829C377.41 200.829 396.578 197.725 395.285 209.455H377.41V200.829Z" fill="#F4A28C"/>
<path d="M334.861 179.489L329.071 207.619H361.59L357.157 175.285L334.861 179.489Z" fill="#C9C9C9"/>
<path d="M410.084 88.6838H281.08V176.359H410.084V88.6838Z" fill="#24285B"/>
<path d="M366.992 146.651H326.408V150.466H366.992V146.651Z" fill="#F7809C"/>
<path d="M385.074 156.661H344.49V160.477H385.074V156.661Z" fill="#FFD200"/>
<path d="M410.084 168.819H281.08V185.412H410.084V168.819Z" fill="#E6E6E6"/>
<path d="M350.694 137.43H316.637V141.245H350.694V137.43Z" fill="#F7809C"/>
<path d="M391.834 137.43H357.777V141.245H391.834V137.43Z" fill="#F7809C"/>
<path d="M356.859 126.811H326.408V130.627H356.859V126.811Z" fill="#FFD200"/>
<path d="M395.234 126.811H364.782V130.627H395.234V126.811Z" fill="#FFD200"/>
<path d="M319.273 146.651H304.009V150.466H319.273V146.651Z" fill="white"/>
<path d="M334.473 156.661H319.209V160.477H334.473V156.661Z" fill="white"/>
<path d="M309.502 137.43H294.238V141.245H309.502V137.43Z" fill="white"/>
<path opacity="0.14" d="M297.934 119.465C297.934 119.465 360.956 113.128 347.049 185.425L351.844 203.053L332.172 192.37L333.749 185.438H323.332L297.934 119.465Z" fill="black"/>
<path d="M297.934 99.0952C298.926 99.0952 299.731 98.2903 299.731 97.2974C299.731 96.3046 298.926 95.4997 297.934 95.4997C296.942 95.4997 296.138 96.3046 296.138 97.2974C296.138 98.2903 296.942 99.0952 297.934 99.0952Z" fill="#F7809C"/>
<path d="M302.975 99.0952C303.967 99.0952 304.771 98.2903 304.771 97.2974C304.771 96.3046 303.967 95.4997 302.975 95.4997C301.983 95.4997 301.178 96.3046 301.178 97.2974C301.178 98.2903 301.983 99.0952 302.975 99.0952Z" fill="#FFD200"/>
<path d="M309.502 108.42H294.238V112.235H309.502V108.42Z" fill="white"/>
<path d="M319.273 117.965H304.009V121.78H319.273V117.965Z" fill="white"/>
<path d="M356.859 117.965H326.408V121.78H356.859V117.965Z" fill="#FFD200"/>
<path d="M395.234 117.965H364.782V121.78H395.234V117.965Z" fill="#FFD200"/>
<path d="M319.273 126.811H304.009V130.627H319.273V126.811Z" fill="white"/>
<path d="M347.049 108.42H315.603V112.235H347.049V108.42Z" fill="#F7809C"/>
<path d="M375.949 108.42H353.628V112.235H375.949V108.42Z" fill="#F7809C"/>
<path d="M347.049 181.325C349.697 181.325 351.844 179.177 351.844 176.527C351.844 173.877 349.697 171.729 347.049 171.729C344.401 171.729 342.254 173.877 342.254 176.527C342.254 179.177 344.401 181.325 347.049 181.325Z" fill="#A5A5A5"/>
<path d="M164.548 203.092H99.7034V207.619H164.548V203.092Z" fill="#C9C9C9"/>
<path d="M125.554 200.829C125.554 200.829 106.386 197.725 107.678 209.455H125.554V200.829Z" fill="#F4A28C"/>
<path d="M161.201 179.489L155.41 207.619H187.929L183.496 175.285L161.201 179.489Z" fill="#C9C9C9"/>
<path d="M231.022 88.6838H102.017V176.359H231.022V88.6838Z" fill="#24285B"/>
<path d="M187.929 146.651H147.345V150.466H187.929V146.651Z" fill="#F7809C"/>
<path d="M231.022 168.819H102.017V185.412H231.022V168.819Z" fill="#E6E6E6"/>
<path d="M171.631 137.43H137.574V141.245H171.631V137.43Z" fill="#F7809C"/>
<path d="M177.796 126.811H147.345V130.627H177.796V126.811Z" fill="#FFD200"/>
<path d="M140.21 146.651H124.946V150.466H140.21V146.651Z" fill="white"/>
<path d="M155.41 156.661H140.146V160.477H155.41V156.661Z" fill="white"/>
<path d="M130.439 137.43H115.175V141.245H130.439V137.43Z" fill="white"/>
<path d="M113.533 99.0952C114.525 99.0952 115.33 98.2903 115.33 97.2974C115.33 96.3046 114.525 95.4997 113.533 95.4997C112.541 95.4997 111.737 96.3046 111.737 97.2974C111.737 98.2903 112.541 99.0952 113.533 99.0952Z" fill="white"/>
<path d="M118.871 99.0952C119.864 99.0952 120.668 98.2903 120.668 97.2974C120.668 96.3046 119.864 95.4997 118.871 95.4997C117.879 95.4997 117.075 96.3046 117.075 97.2974C117.075 98.2903 117.879 99.0952 118.871 99.0952Z" fill="#F7809C"/>
<path d="M123.912 99.0952C124.904 99.0952 125.709 98.2903 125.709 97.2974C125.709 96.3046 124.904 95.4997 123.912 95.4997C122.92 95.4997 122.115 96.3046 122.115 97.2974C122.115 98.2903 122.92 99.0952 123.912 99.0952Z" fill="#FFD200"/>
<path d="M130.439 108.42H115.175V112.235H130.439V108.42Z" fill="white"/>
<path d="M140.21 117.965H124.946V121.78H140.21V117.965Z" fill="white"/>
<path d="M177.796 117.965H147.345V121.78H177.796V117.965Z" fill="#FFD200"/>
<path d="M140.21 126.811H124.946V130.627H140.21V126.811Z" fill="white"/>
<path d="M167.986 108.42H136.54V112.235H167.986V108.42Z" fill="#F7809C"/>
<path opacity="0.45" d="M253.407 340.263C368.691 340.263 462.146 328.144 462.146 313.194C462.146 298.244 368.691 286.124 253.407 286.124C138.124 286.124 44.6687 298.244 44.6687 313.194C44.6687 328.144 138.124 340.263 253.407 340.263Z" fill="#E6E6E6"/>
<path d="M221.819 116.581C221.819 116.581 176.827 119.672 173.376 144.672C171.463 158.563 175.263 171.121 179.024 179.592C179.597 180.879 179.863 182.282 179.799 183.69C179.735 185.097 179.343 186.471 178.655 187.7C177.968 188.93 177.002 189.982 175.837 190.772C174.671 191.563 173.337 192.07 171.941 192.254L125.553 198.721V209.52L190.101 207.606C196.649 207.412 202.899 204.82 207.664 200.322C212.429 195.823 215.378 189.731 215.951 183.201L221.819 116.581Z" fill="#F7809C"/>
<path d="M281.08 116.581C281.08 116.581 326.072 119.672 329.523 144.672C331.436 158.563 327.636 171.121 323.875 179.592C323.301 180.879 323.036 182.282 323.1 183.69C323.164 185.097 323.556 186.471 324.244 187.7C324.931 188.93 325.897 189.982 327.062 190.772C328.228 191.563 329.562 192.07 330.958 192.254L377.345 198.721V209.52L312.785 207.541C306.238 207.345 299.99 204.752 295.225 200.254C290.461 195.756 287.511 189.665 286.935 183.136L281.08 116.581Z" fill="#F7809C"/>
<path opacity="0.46" d="M221.819 116.581C221.819 116.581 176.827 119.672 173.376 144.672C171.463 158.563 175.263 171.121 179.024 179.592C179.597 180.879 179.863 182.282 179.799 183.69C179.735 185.097 179.343 186.471 178.655 187.7C177.968 188.93 177.002 189.982 175.837 190.772C174.671 191.563 173.337 192.07 171.941 192.254L125.553 198.721V209.52L190.101 207.606C196.649 207.412 202.899 204.82 207.664 200.322C212.429 195.823 215.378 189.731 215.951 183.201L221.819 116.581Z" fill="white"/>
<path opacity="0.46" d="M281.08 116.581C281.08 116.581 326.072 119.672 329.523 144.672C331.436 158.563 327.636 171.121 323.875 179.592C323.301 180.879 323.036 182.282 323.1 183.69C323.164 185.097 323.556 186.471 324.244 187.7C324.931 188.93 325.897 189.982 327.062 190.772C328.228 191.563 329.562 192.07 330.958 192.254L377.345 198.721V209.52L312.785 207.541C306.238 207.345 299.99 204.752 295.225 200.254C290.461 195.756 287.511 189.665 286.935 183.136L281.08 116.581Z" fill="white"/>
<path d="M421.756 217.603H82.4744V313.207H421.756V217.603Z" fill="#C9C9C9"/>
<path d="M421.756 207.619H82.4744V230.989H421.756V207.619Z" fill="#E6E6E6"/>
<path d="M247.294 116.581L252.787 92.6156C252.787 92.6156 252.968 81.3895 260.167 84.002C267.366 86.6145 269.525 99.6255 265.647 104.023C261.77 108.42 259.185 102.419 259.185 102.419V115.676L247.294 116.581Z" fill="#F4A28C"/>
<path opacity="0.1" d="M342.254 208.421C342.254 208.421 312.436 214.771 324.896 226.812C337.355 238.853 330.479 255.783 321.845 260.671C313.211 265.56 277.448 271.458 288.874 312.702H248.561L245.588 290.716L219.738 263.4L231.034 237.055L262.817 193.819L284.35 211.68L296.137 207.619L342.254 208.421Z" fill="black"/>
<path d="M240.121 115.482C240.121 115.482 195.271 111.485 189.416 141.788C183.561 172.091 225.296 229.282 225.296 229.282L283.458 227.019C283.458 227.019 373.817 100.013 240.121 115.482Z" fill="#F7809C"/>
<path d="M245.575 290.677C245.575 290.677 248.16 294.091 246.467 297.324C244.774 300.558 247.216 303.3 249.776 301.049C252.335 298.799 253.395 289.409 253.395 289.409L247.617 286.034L245.575 290.677Z" fill="#F7809C"/>
<path d="M225.296 229.282C225.296 229.282 221.418 249.652 230.143 250.622C238.867 251.592 300.584 254.347 310.924 245.695C321.264 237.042 318.679 225.079 283.458 227.019L225.296 229.282Z" fill="#24285B"/>
<path d="M224.792 232.8C224.792 232.8 197.83 253.881 211.724 269.401C225.619 284.921 245.653 293.975 245.653 293.975L248.561 286.538C248.561 286.538 206.554 253.881 246.299 247.415L224.792 232.8Z" fill="#24285B"/>
<path d="M259.301 164.189H243.442C227.11 164.189 213.87 177.437 213.87 193.78C213.87 210.123 227.11 223.372 243.442 223.372H259.301C275.634 223.372 288.874 210.123 288.874 193.78C288.874 177.437 275.634 164.189 259.301 164.189Z" fill="#FFD200"/>
<path d="M258.422 193.78H243.662V253.054H258.422V193.78Z" fill="#FFD200"/>
<path opacity="0.08" d="M258.422 193.78H243.662V253.054H258.422V193.78Z" fill="black"/>
<path d="M281.08 245.695H221.819V263.4H281.08V245.695Z" fill="#FFD200"/>
<path d="M248.987 100.466L249.078 94.7884C249.116 93.4816 248.891 92.1805 248.416 90.9628C247.941 89.745 247.225 88.6356 246.312 87.7009C245.936 87.4078 245.621 87.0432 245.386 86.6281C245.152 86.213 245.001 85.7555 244.943 85.282C244.886 84.8086 244.922 84.3283 245.05 83.8689C245.179 83.4096 245.397 82.9801 245.691 82.6052C248.664 78.3501 251.172 81.1049 254.17 77.3413C257.169 73.5777 259.431 72.8405 262.933 77.3413C266.436 81.8421 269.189 76.5912 271.192 82.1008C273.196 87.6104 271.438 90.3652 263.683 90.8696C257.091 91.2964 259.133 98.7719 253.02 102.704C252.624 102.972 252.162 103.125 251.685 103.146C251.208 103.167 250.735 103.056 250.317 102.824C249.899 102.592 249.554 102.249 249.319 101.833C249.084 101.417 248.97 100.944 248.987 100.466Z" fill="#24285B"/>
<path d="M255.76 263.387H246.351V304.295H255.76V263.387Z" fill="#FFD200"/>
<path opacity="0.08" d="M255.76 263.387H246.351V304.295H255.76V263.387Z" fill="black"/>
<path d="M246.351 304.295L228.152 321.109H275.38L255.747 304.295H246.351Z" fill="#FFD200"/>
<path d="M404.733 239.305H369.836V299.769H404.733V239.305Z" fill="#A5A5A5"/>
<path d="M361.654 230.989H353.473V313.206H361.654V230.989Z" fill="#E6E6E6"/>
<path d="M421.756 230.989H413.574V313.206H421.756V230.989Z" fill="#E6E6E6"/>
<path d="M421.769 299.769H360.853V313.194H421.769V299.769Z" fill="#E6E6E6"/>
<path d="M99.7034 230.989H82.4744V313.206H99.7034V230.989Z" fill="#E6E6E6"/>
<path opacity="0.42" d="M148.818 289.952H99.7034V299.769H148.818V289.952Z" fill="#A5A5A5"/>
<path d="M173.686 299.381H99.7034V313.194H173.686V299.381Z" fill="#A5A5A5"/>
<path d="M196.886 108.42H174.565V112.235H196.886V108.42Z" fill="#F7809C"/>
<path d="M171.321 181.325C173.969 181.325 176.116 179.177 176.116 176.527C176.116 173.877 173.969 171.729 171.321 171.729C168.673 171.729 166.526 173.877 166.526 176.527C166.526 179.177 168.673 181.325 171.321 181.325Z" fill="#A5A5A5"/>
<path d="M292.596 99.0952C293.588 99.0952 294.393 98.2903 294.393 97.2974C294.393 96.3046 293.588 95.4997 292.596 95.4997C291.604 95.4997 290.8 96.3046 290.8 97.2974C290.8 98.2903 291.604 99.0952 292.596 99.0952Z" fill="white"/>
<path d="M432.871 69.1934H382.787V103.648H432.871V69.1934Z" fill="#FFD200"/>
<path d="M401.101 93.1847C400.843 93.1858 400.593 93.0991 400.391 92.9389L392.92 87.0025C392.784 86.8935 392.675 86.7558 392.599 86.5992C392.523 86.4427 392.482 86.2712 392.48 86.0972C392.48 85.9222 392.518 85.7491 392.591 85.5904C392.665 85.4317 392.773 85.2912 392.907 85.1789L400.416 79.1391C400.657 78.9565 400.96 78.8749 401.26 78.9116C401.56 78.9484 401.834 79.1006 402.024 79.3359C402.214 79.5713 402.305 79.8714 402.277 80.1726C402.25 80.4738 402.106 80.7526 401.877 80.9497L395.492 86.1231L401.864 91.1541C401.985 91.2476 402.086 91.3642 402.161 91.4972C402.236 91.6301 402.284 91.7766 402.302 91.9283C402.32 92.08 402.308 92.2337 402.266 92.3806C402.224 92.5275 402.153 92.6645 402.058 92.7837C401.942 92.9216 401.794 93.0299 401.628 93.0996C401.462 93.1693 401.281 93.1985 401.101 93.1847V93.1847Z" fill="white"/>
<path d="M414.699 93.1847C414.524 93.1857 414.352 93.1466 414.195 93.0703C414.038 92.9941 413.901 92.8827 413.794 92.7449C413.698 92.6257 413.628 92.4887 413.586 92.3418C413.544 92.1949 413.532 92.0412 413.55 91.8895C413.568 91.7378 413.616 91.5913 413.691 91.4583C413.766 91.3254 413.867 91.2088 413.988 91.1153L420.347 86.0843L413.975 80.9109C413.84 80.8216 413.726 80.7052 413.639 80.5692C413.551 80.4332 413.494 80.2805 413.469 80.1209C413.444 79.9612 413.452 79.7981 413.494 79.642C413.535 79.4858 413.609 79.34 413.709 79.2138C413.81 79.0877 413.936 78.9839 414.08 78.9091C414.223 78.8343 414.38 78.7902 414.541 78.7795C414.702 78.7688 414.864 78.7918 415.015 78.8471C415.167 78.9023 415.306 78.9885 415.422 79.1003L422.945 85.1401C423.079 85.2524 423.187 85.3929 423.261 85.5516C423.334 85.7103 423.372 85.8834 423.371 86.0584C423.369 86.2324 423.329 86.4039 423.253 86.5605C423.177 86.717 423.067 86.8547 422.932 86.9637L415.422 92.9001C415.221 93.0753 414.965 93.1757 414.699 93.1847V93.1847Z" fill="white"/>
<path d="M404.759 93.1847C404.59 93.1876 404.422 93.1523 404.268 93.0812C403.989 92.9518 403.773 92.7173 403.667 92.429C403.56 92.1406 403.572 91.8218 403.699 91.5421L409.167 79.5529C409.23 79.4137 409.321 79.2883 409.433 79.184C409.545 79.0797 409.676 78.9985 409.82 78.9451C409.963 78.8916 410.116 78.867 410.269 78.8725C410.422 78.8781 410.572 78.9137 410.711 78.9774C410.85 79.0411 410.976 79.1316 411.08 79.2437C411.184 79.3559 411.265 79.4875 411.319 79.631C411.372 79.7745 411.397 79.9271 411.391 80.0802C411.386 80.2332 411.35 80.3837 411.286 80.5229L405.845 92.5121C405.752 92.7201 405.599 92.8953 405.405 93.0152C405.212 93.1351 404.987 93.1942 404.759 93.1847V93.1847Z" fill="white"/>
<path opacity="0.58" d="M121.495 275.312C121.495 275.312 109.591 272.053 106.993 260.969C106.993 260.969 125.45 257.244 125.967 276.295L121.495 275.312Z" fill="#F7809C"/>
<path opacity="0.73" d="M122.891 274.187C122.891 274.187 114.567 261.021 121.896 248.721C121.896 248.721 135.919 257.632 129.651 274.213L122.891 274.187Z" fill="#F7809C"/>
<path d="M125.036 274.187C125.036 274.187 129.431 260.296 142.718 257.658C142.718 257.658 145.199 266.711 134.11 274.225L125.036 274.187Z" fill="#F7809C"/>
<path d="M116.403 273.825L118.807 290.353L134.006 290.418L136.255 273.915L116.403 273.825Z" fill="#24285B"/>
<path d="M393.191 257.619C395.661 257.619 397.663 255.616 397.663 253.144C397.663 250.673 395.661 248.669 393.191 248.669C390.721 248.669 388.719 250.673 388.719 253.144C388.719 255.616 390.721 257.619 393.191 257.619Z" fill="white"/>
<path opacity="0.18" d="M400.132 263.387H375.794V293.949H400.132V263.387Z" fill="white"/>
</svg>
