<svg width="71" height="71" viewBox="0 0 71 71" fill="none" xmlns="http://www.w3.org/2000/svg">
<circle cx="35.0428" cy="35.8455" r="35" fill="#F4EEFB"/>
<path d="M35.0429 25.831C29.5009 25.831 25.0282 30.3037 25.0282 35.8457C25.0282 41.3877 29.5009 45.8603 35.0429 45.8603C40.5849 45.8603 45.0575 41.3877 45.0575 35.8457C45.0575 30.3037 40.5849 25.831 35.0429 25.831ZM35.0429 42.3545C31.4589 42.3545 28.5341 39.4297 28.5341 35.8457C28.5341 32.2617 31.4589 29.3369 35.0429 29.3369C38.6269 29.3369 41.5517 32.2617 41.5517 35.8457C41.5517 39.4297 38.6269 42.3545 35.0429 42.3545ZM45.4677 23.0869C44.1737 23.0869 43.1288 24.1318 43.1288 25.4258C43.1288 26.7197 44.1737 27.7646 45.4677 27.7646C46.7616 27.7646 47.8065 26.7246 47.8065 25.4258C47.8069 25.1185 47.7467 24.8142 47.6293 24.5303C47.5119 24.2463 47.3396 23.9883 47.1224 23.7711C46.9051 23.5538 46.6471 23.3816 46.3632 23.2642C46.0792 23.1467 45.7749 23.0865 45.4677 23.0869ZM54.5644 35.8457C54.5644 33.1504 54.5888 30.4795 54.4374 27.789C54.286 24.664 53.5731 21.8906 51.288 19.6055C48.9979 17.3154 46.2294 16.6074 43.1044 16.456C40.4091 16.3047 37.7382 16.3291 35.0477 16.3291C32.3524 16.3291 29.6815 16.3047 26.9911 16.456C23.8661 16.6074 21.0927 17.3203 18.8075 19.6055C16.5175 21.8955 15.8095 24.664 15.6581 27.789C15.5067 30.4844 15.5311 33.1553 15.5311 35.8457C15.5311 38.5361 15.5067 41.2119 15.6581 43.9023C15.8095 47.0273 16.5224 49.8008 18.8075 52.0859C21.0976 54.376 23.8661 55.084 26.9911 55.2353C29.6864 55.3867 32.3573 55.3623 35.0477 55.3623C37.7431 55.3623 40.414 55.3867 43.1044 55.2353C46.2294 55.084 49.0028 54.3711 51.288 52.0859C53.578 49.7959 54.286 47.0273 54.4374 43.9023C54.5937 41.2119 54.5644 38.541 54.5644 35.8457ZM50.2675 47.3594C49.911 48.248 49.4813 48.9121 48.7929 49.5957C48.1044 50.2842 47.4452 50.7139 46.5565 51.0703C43.9882 52.0908 37.8895 51.8613 35.0429 51.8613C32.1962 51.8613 26.0927 52.0908 23.5243 51.0752C22.6356 50.7187 21.9716 50.2891 21.288 49.6006C20.5995 48.9121 20.1698 48.2529 19.8134 47.3642C18.7977 44.791 19.0272 38.6924 19.0272 35.8457C19.0272 32.999 18.7977 26.8955 19.8134 24.3271C20.1698 23.4385 20.5995 22.7744 21.288 22.0908C21.9765 21.4072 22.6356 20.9726 23.5243 20.6162C26.0927 19.6006 32.1962 19.8301 35.0429 19.8301C37.8895 19.8301 43.9931 19.6006 46.5614 20.6162C47.4501 20.9726 48.1142 21.4023 48.7978 22.0908C49.4862 22.7793 49.9159 23.4385 50.2724 24.3271C51.288 26.8955 51.0585 32.999 51.0585 35.8457C51.0585 38.6924 51.288 44.791 50.2675 47.3594Z" fill="#9326D7"/>
</svg>
