<svg width="71" height="71" viewBox="0 0 71 71" fill="none" xmlns="http://www.w3.org/2000/svg">
<circle cx="35.6525" cy="35.8455" r="35" fill="#C9E2FF"/>
<g clip-path="url(#clip0)">
<path d="M24.2286 55.8455V28.8575H15.2583V55.8455H24.2286ZM19.7446 25.1706C22.8727 25.1706 24.8198 23.0982 24.8198 20.5085C24.7615 17.8603 22.8728 15.8455 19.804 15.8455C16.7356 15.8455 14.7291 17.8603 14.7291 20.5085C14.7291 23.0983 16.6757 25.1706 19.6861 25.1706H19.7443H19.7446ZM29.1936 55.8455H38.1638V40.7741C38.1638 39.9675 38.2221 39.1617 38.459 38.5851C39.1075 36.9736 40.5834 35.3045 43.0614 35.3045C46.3073 35.3045 47.6059 37.7793 47.6059 41.4073V55.8453H56.5756V40.3707C56.5756 32.081 52.1501 28.2239 46.2483 28.2239C41.4092 28.2239 39.2845 30.9288 38.1041 32.7711H38.164V28.857H29.1938C29.3115 31.3894 29.1938 55.8449 29.1938 55.8449L29.1936 55.8455Z" fill="#2867B2"/>
</g>
<defs>
<clipPath id="clip0">
<rect width="41.8464" height="40" fill="white" transform="translate(14.7292 15.8455)"/>
</clipPath>
</defs>
</svg>
