<svg width="369" height="538" viewBox="0 0 369 538" fill="none" xmlns="http://www.w3.org/2000/svg">
<path fill-rule="evenodd" clip-rule="evenodd" d="M243.819 214.737C244.323 216.895 243.863 219.328 243.947 221.542C244.027 223.659 244.277 225.763 244.645 227.848C248.513 225.813 253.084 225.552 257.491 226.207C263.193 227.054 269.791 228.929 274.26 232.739C275.363 233.68 276.277 234.794 277.043 236.023C277.961 237.497 278.547 239.162 280.004 240.218C282.256 241.852 285.049 242.484 287.215 244.295C289.423 246.141 290.793 248.9 291.083 251.748C291.237 253.264 290.987 254.681 290.7 256.16C290.442 257.49 290.569 258.036 290.919 259.316C291.194 260.321 290.669 261.462 289.814 262.017C291.648 263.276 293.457 264.573 295.234 265.924C305.591 273.785 314.349 283.584 320.42 295.114L320.566 295.401L320.736 295.745C322.216 298.785 326.087 307.672 326.568 309.67C326.912 310.713 327.245 311.761 327.554 312.815C328.372 315.608 329.065 318.436 329.64 321.287L329.794 322.065C330.26 324.459 331.063 327.295 330.934 329.847C332.278 336.815 333.469 343.812 334.486 350.838C334.619 351.759 334.253 352.507 333.684 353.003C335.044 353.221 336.395 353.49 337.731 353.761L338.508 353.924L338.896 354.01C341.679 354.638 344.426 355.552 346.249 357.89C348.215 360.419 348.255 363.669 346.281 366.216C344.604 368.379 342.157 369.407 339.601 370.056C339.097 370.182 338.587 370.299 338.078 370.403C337.736 370.475 337.51 370.006 337.834 369.826L338.377 369.526L339.117 369.121C341.043 368.059 343.042 366.86 344.108 364.945C345.555 362.344 344.41 359.936 341.927 358.616C339.848 357.509 337.276 357.226 334.968 356.848L334.014 356.69C331.601 356.305 329.139 356.055 326.703 356.33C324.571 356.574 322.412 357.3 320.69 358.602L320.53 358.727L320.365 358.866C318.855 360.175 316.684 363.115 319.532 363.962C321.709 364.606 324.361 364.446 326.649 364.57L326.945 364.588C328.861 364.719 330.863 364.719 332.8 364.949C333.494 365.03 334.18 365.142 334.851 365.301C336.776 365.756 336.113 368.316 334.418 368.496C334.003 368.542 333.58 368.564 333.156 368.573C332.047 369.407 330.515 369.786 329.204 370.304C327.951 370.8 326.693 371.291 325.427 371.773C326.518 371.823 327.608 371.913 328.695 372.048C329.046 372.088 329.05 372.562 328.695 372.598C326.08 372.864 323.466 373.153 320.861 373.517C316.828 374.077 312.82 374.825 308.904 375.965C306.042 376.802 303.214 377.798 300.471 378.962L299.642 379.319L299.299 379.468C296.81 380.547 293.59 381.809 292.16 384.187C291.412 385.426 291.083 387.342 292.138 388.528C293.266 389.805 295.629 389.659 297.208 389.721L297.335 389.727C300.679 389.889 304.027 389.911 307.376 389.794C314.393 389.546 321.416 388.78 328.307 387.432C329.578 387.185 330.128 389.091 328.848 389.389C320.719 391.277 312.501 392.314 304.161 392.362L303.247 392.364C299.999 392.985 296.812 393.911 293.653 394.957L293.021 395.167C291.155 395.798 287.969 396.425 286.869 398.277C286.139 399.508 286.396 400.351 287.117 400.923C288.388 401.929 291.092 402.117 292.408 402.167C297.681 402.365 302.959 402.401 308.237 402.289C310.874 402.23 313.51 402.136 316.147 402.001C318.725 401.865 321.478 401.482 324.047 401.73C325.152 401.838 325.522 403.461 324.323 403.763C321.155 404.566 317.601 404.496 314.328 404.598L313.952 404.611C310.436 404.736 306.917 404.791 303.401 404.782C300.384 404.77 297.367 404.709 294.352 404.598L291.688 404.492L291.216 404.47C289.795 404.394 288.345 404.23 287.086 403.646C285.923 405.593 286.792 408.203 288.293 409.744C289.722 411.214 291.782 411.935 293.756 412.386C293.941 412.427 294.126 412.467 294.31 412.503C298.646 413.386 303.063 413.31 307.119 415.302C310.531 416.979 313.655 419.773 317.476 420.436C320.892 421.031 323.376 419.526 325.197 416.74C325.296 416.587 325.395 416.434 325.49 416.28C326.923 413.972 327.955 411.43 329.465 409.167C330.236 408.014 331.106 406.905 332.17 406.003C332.647 405.593 335.991 403.817 336.514 403.285C338.763 400.977 336.771 396.123 337.357 393.229C338.042 389.862 341.003 388.677 342.779 386.066C346.154 381.099 336.897 376.447 339.665 371.016C339.701 370.949 339.745 370.899 339.804 370.867C340.047 370.736 340.435 370.899 340.413 371.219C340.106 375.267 343.964 378.052 345.357 381.559C346.943 385.548 344.41 387.964 341.824 390.628C338.506 394.049 340.841 397.881 340.102 402.001C340.005 402.541 339.85 403.017 339.649 403.443C340.216 403.794 340.653 404.377 340.749 405.19C341.887 414.836 343.109 424.452 345.106 433.965L345.533 435.986L346.105 438.682C347.528 445.425 348.857 452.196 349.109 459.09C349.902 464.908 350.217 470.774 349.747 476.631C348.323 494.459 338.357 513.111 320.252 518.582C316.061 519.849 311.617 520.178 307.317 519.29C305.844 518.988 303.78 518.321 301.927 517.311C302.037 518.499 302.125 519.688 302.161 520.873C302.772 521.553 303.048 522.58 302.7 523.458C301.224 522.972 299.882 522.203 298.673 521.151L298.473 520.973C297.757 518.31 297.547 515.397 297.443 512.593L297.416 511.794C297.388 511.019 297.371 510.257 297.343 509.514C297.19 504.884 297.299 500.246 297.537 495.622L297.713 492.217C298.115 484.276 298.443 476.354 298.223 468.392C297.97 459.228 297.186 450.104 296.203 440.991C295.694 436.289 295.117 431.597 294.526 426.905C294.053 423.127 293.26 419.062 293.247 415.167C290.213 414.518 287.234 413.274 285.368 410.727C283.389 408.027 283.097 404.574 284.854 401.806C283.155 399.481 284.548 397.29 286.648 395.812C283.421 394.004 281.623 389.073 281.145 385.643C280.82 383.29 280.717 379.769 281.722 377.123C280.28 377.173 278.838 377.322 277.395 377.57C275.727 377.863 274.092 378.291 272.478 378.823L271.661 379.093C271.249 379.232 270.784 379.394 270.323 379.585C273.24 384.407 269.494 388.78 264.69 390.029C263.775 390.267 262.842 390.434 261.9 390.569C259.777 390.863 257.609 390.952 255.504 391.147C251.475 391.516 247.424 392.044 243.381 392.215C242.492 392.255 241.921 391.841 241.65 391.263C241.641 391.255 241.637 391.25 241.637 391.241C241.542 391.088 241.478 390.925 241.456 390.754C241.47 390.768 241.488 390.777 241.501 390.786C241.307 389.704 241.957 388.388 243.381 388.23C249.217 387.572 255.135 387.541 260.989 387.058L261.365 387.027C263.202 386.869 265.367 386.577 266.822 385.413C268.174 384.331 268.295 382.925 267.754 381.654C267.745 381.685 267.737 381.721 267.732 381.753C267.691 382.005 267.345 381.996 267.232 381.82C266.894 381.307 266.808 380.801 266.894 380.315C266.488 379.846 265.997 379.431 265.465 379.111C263.108 377.678 260.007 377.286 257.325 376.862C254.392 376.398 251.435 376.186 248.474 376.047C242.646 375.771 236.8 376.245 231.068 377.29C230.828 377.331 230.73 376.998 230.964 376.921C233.199 376.181 235.484 375.56 237.796 375.068C237.742 375.059 237.688 375.05 237.634 375.036C237.432 374.987 237.287 374.739 237.355 374.541C237.363 374.509 237.377 374.478 237.391 374.451C236.408 374 235.998 372.486 237.188 371.873C240.897 369.957 245.251 369.091 249.321 368.302C253.229 367.549 257.176 367.022 261.13 366.554C267.813 365.769 275.101 365.787 281.532 363.677L281.797 363.589C284.416 362.685 287.543 360.855 287.726 357.764C287.996 353.089 281.05 354.307 278.157 354.42C270.238 354.722 262.328 355.271 254.446 356.119C252.836 356.29 251.227 356.465 249.619 356.646C247.153 356.921 244.683 357.21 242.223 357.516C240.848 357.687 239.442 357.913 238.026 358.129C237.585 358.237 237.152 358.314 236.719 358.355C236.687 358.359 236.661 358.35 236.638 358.337C234.579 358.625 232.51 358.845 230.5 358.783C230.269 358.778 230.126 358.417 230.369 358.309C232.965 357.21 235.854 356.561 238.752 356.051C240.546 354.713 242.713 353.64 244.494 352.603C246.937 351.179 249.736 349.083 252.508 348.231C253.756 347.248 255.171 346.459 256.474 345.923C256.1 345.341 255.964 344.534 256.032 343.854C256.28 341.415 258.232 340.054 260.485 339.576C261.184 339.432 261.99 339.324 262.851 339.283C262.869 338.828 263.072 338.382 263.522 338.048L263.655 337.947L263.75 337.872C265.263 336.644 268.266 333.185 264.649 332.932C262.73 332.797 261.107 334.203 259.579 335.154C256.406 337.133 253.337 337.232 249.713 336.741L248.084 336.507L247.813 336.47C245.194 336.127 242.536 336.079 241.073 338.751C239.504 341.609 238.955 344.215 235.791 345.788C232.767 347.289 229.409 347.586 226.633 349.651C223.658 351.859 221.422 354.96 218.989 357.71C213.621 363.768 207.478 369.118 201.15 374.149L200.024 375.041C194.197 379.647 188.181 384.182 181.657 387.73C181.612 387.752 181.566 387.762 181.526 387.762C181.35 387.743 181.219 387.518 181.377 387.365C188.999 379.959 197.914 373.955 205.742 366.748C209.212 363.552 212.516 360.189 215.694 356.7C218.47 353.64 220.931 350.201 224.167 347.595C225.74 346.328 227.439 345.359 229.341 344.683C231.117 344.047 233.109 343.732 234.745 342.758C237.95 340.856 237.639 336.349 240.843 334.302C243.591 332.547 246.938 333.188 249.985 333.605L250.349 333.653C252.323 333.915 254.364 334.136 256.248 333.356C258.114 332.585 259.615 331.143 261.494 330.377C264.113 329.299 267.827 329.556 269.17 332.436C270.454 335.186 268.701 337.674 266.655 339.5C269.445 340.005 271.892 341.352 272.1 344.102C274.146 344.034 276.188 343.962 278.233 343.89C285.359 343.642 292.521 343.164 299.651 343.291C299.489 342.564 299.416 341.816 299.407 341.055C299.403 340.631 299.421 340.207 299.452 339.775C299.507 339.035 299.993 338.589 300.715 338.512L302.325 338.34L302.864 338.287C305.882 338.001 309.255 337.942 311.554 339.936C312.789 341.014 313.785 343.493 313.181 345.148C314.587 345.63 315.926 346.247 317.148 347.027C319.568 346.215 322.11 346.306 324.543 347.153L324.832 347.256C326.562 347.891 329.014 349.095 329.954 350.811C327.672 335.342 324.597 320.005 320.732 304.854C318.264 298.803 315.146 293.019 311.365 287.681C301.842 274.231 288.122 264.982 275.8 254.348C274.713 255.545 273.542 256.684 272.446 257.78L271.982 258.247C269.751 260.506 267.424 262.668 265.046 264.771C260.075 269.166 254.843 273.222 249.648 277.344C239.176 285.652 229.708 294.475 221.83 305.322C221.689 305.518 221.296 305.404 221.406 305.144C226.809 292.298 238.01 282.533 248.185 273.472C253.536 268.707 259.012 264.057 264.156 259.067C266.555 256.741 268.878 254.334 271.07 251.811L271.616 251.178C273.049 249.501 276.405 244.378 278.623 248.074C279.087 248.847 279.067 249.836 278.623 250.61C277.993 251.71 277.193 252.759 276.318 253.766C279.428 255.458 282.474 257.244 285.453 259.135C285.281 258.224 285.324 257.217 285.483 256.21L285.536 255.89L285.752 254.64C286.064 252.798 286.224 251.086 285.055 249.289C283.594 247.042 280.839 246.341 278.644 245.042C276.115 243.546 274.795 241.544 273.441 239.002C270.848 234.137 264.99 232.187 259.956 230.621L259.322 230.425C254.67 228.983 249.637 228.211 244.986 229.597C245.423 231.628 245.994 233.63 246.707 235.581C247.466 237.657 249.201 239.965 249.024 242.208C248.901 243.759 247.04 245.418 245.495 244.232C243.307 242.554 242.87 239.82 242.284 237.215C241.717 234.697 241.355 232.117 241.201 229.54C241.052 227.056 241.168 224.574 241.475 222.108L241.709 220.296L241.766 219.875C242.022 218.044 242.402 216.122 243.432 214.687C243.531 214.549 243.774 214.546 243.819 214.737ZM180.347 204.441C180.38 204.588 180.402 204.732 180.423 204.877C180.574 205.494 180.63 206.088 180.612 206.684C180.621 206.899 180.605 207.115 180.565 207.328C180.484 208.03 180.315 208.75 180.087 209.538C179.6 211.213 179.043 212.868 178.421 214.499C177.19 217.723 175.738 220.799 173.942 223.748C170.698 229.075 166.575 233.496 161.714 237.318C162.636 238.079 163.538 238.871 164.442 239.649C168.809 243.408 173.059 247.338 177.175 251.371C184.485 258.535 191.648 265.831 198.643 273.303C202.094 276.988 205.48 280.721 208.847 284.479L208.958 284.606L209.077 284.748C210.273 286.194 212.663 289.644 214.447 289.09C215.347 288.809 216.296 287.466 216.91 286.825L218.04 285.645C218.416 285.251 218.79 284.855 219.157 284.453C225.735 277.244 231.96 269.759 237.805 261.936C240.657 258.118 243.414 254.229 246.071 250.272C247.436 248.238 248.777 246.186 250.09 244.116C251.36 242.115 252.387 239.964 254.259 238.47C255.633 237.374 257.536 238.379 257.19 240.176C256.645 243.007 254.686 245.4 253.143 247.792C251.594 250.196 250.009 252.577 248.388 254.932C245.267 259.466 242.012 263.905 238.64 268.255C235.737 272.001 232.707 275.651 229.596 279.227L228.745 280.2C225.399 284.016 222.114 288.066 218.416 291.548C215.105 294.667 211.488 293.759 208.472 290.728C204.657 286.896 201.115 282.752 197.444 278.78C190.108 270.843 182.696 262.967 175.207 255.174L172.745 252.61C169.874 249.613 167.016 246.598 164.232 243.527L163.872 243.127C160.697 239.555 157.469 235.08 152.955 233.264C152.629 233.133 152.749 232.67 153.101 232.735C155.991 233.269 158.403 234.725 160.647 236.464C162.665 233.125 164.465 229.606 166.034 226.006L165.027 225.569C157.823 222.456 149.703 219.317 141.969 219.822C138.852 220.024 135.526 221.205 133.374 223.546C131.425 225.665 130.452 228.524 128.664 230.782C126.615 233.368 123.944 234.532 120.665 234.637L119.07 234.685C117.237 234.745 115.478 234.841 113.618 235.244C108.578 236.337 103.265 238.11 99.0382 241.137C97.5049 242.236 95.922 243.746 95.1806 245.409C94.4455 247.058 94.2341 248.986 94.1625 250.766C94.1278 251.633 94.3878 252.778 94.1706 253.608C94.1954 253.513 94.2067 253.563 94.2098 253.662C94.8854 254.195 95.3456 255.081 95.3956 255.964C99.6088 253.767 103.97 251.843 108.416 250.108C113.367 248.176 118.471 246.629 123.576 245.163C128.573 243.729 133.803 243.136 138.896 242.113C139.545 241.983 139.77 242.859 139.166 243.091C133.812 245.148 128.632 247.585 123.234 249.52C117.839 251.454 112.484 253.548 107.245 255.874C97.1182 260.373 87.3366 266.098 79.3587 273.865C71.5669 281.451 65.5567 290.666 59.9671 299.932C54.3378 309.263 49.3138 318.934 44.8361 328.868C35.9779 348.52 29.3354 369.183 24.9623 390.289C20.7063 410.828 18.3283 432.1 19.1202 453.093C19.4961 463.063 20.7139 473.042 23.5461 482.631C24.8992 487.212 26.5929 491.689 28.7329 495.962C30.9895 500.468 34.03 504.481 36.0906 509.064C36.2601 509.441 36.325 509.803 36.3155 510.139C45.1042 517.754 58.8606 512.622 68.3723 508.076C90.2585 497.609 111.739 486.156 132.156 473.012C152.307 460.039 171.403 445.561 190.049 430.533C188.607 429.046 187.335 427.378 186.218 425.868C183.91 422.749 182.175 419.215 180.981 415.527C179.584 411.209 179.15 406.589 179.548 402.077L179.66 400.801C180.04 396.541 180.479 392.217 181.413 388.054C181.422 388 181.463 387.977 181.508 387.977C181.553 387.977 181.598 388.005 181.616 388.054C184.136 396.118 184.338 404.786 187.168 412.747C188.309 415.947 190.076 419.039 192.194 421.694C193.109 422.843 194.182 423.84 195.277 424.813C195.349 424.317 195.448 423.826 195.597 423.344L195.715 422.962C195.861 422.498 196.043 421.983 196.295 421.527C195.939 421.424 195.593 421.311 195.25 421.184C194.979 421.085 194.921 420.648 195.25 420.576C196.147 420.369 197.071 420.265 198.013 420.22C198.162 420.198 198.305 420.193 198.45 420.202C200.212 420.147 202.006 420.274 203.705 420.301C206.648 420.346 209.582 420.4 212.521 420.531C218.146 420.774 224.496 421.852 230.031 420.544C235.061 419.355 240.018 416.001 244.052 412.845C247.576 410.087 250.295 406.81 253.219 403.542C253.009 403.575 252.801 403.606 252.593 403.635L250.707 403.894C248.326 404.212 245.5 404.461 243.611 403.317C242.889 402.88 243.097 401.888 243.831 401.617C245.76 400.91 248.154 401.496 250.208 401.397C251.822 401.32 253.454 401.149 255.045 400.815C255.568 400.707 256.086 400.581 256.599 400.432C260.367 399.346 264.794 395.523 261.801 391.35C261.688 391.192 261.814 391.047 261.967 391.02C262.035 391.007 262.108 391.02 262.166 391.07C265.573 393.891 263.802 398.949 260.579 401.117C259.471 401.866 258.218 402.388 256.92 402.772C257.168 403.226 257.212 403.786 256.915 404.317C254.391 408.816 250.119 412.769 246.116 415.947C242.006 419.21 237.265 422.289 232.167 423.731C226.281 425.39 219.813 424.142 213.842 423.614C210.605 423.33 207.378 422.992 204.147 422.618C203.281 422.519 202.385 422.442 201.474 422.357C202.331 423.483 203.011 424.782 203.457 425.561C204.909 428.094 203.57 431.43 200.758 432.205C200.464 432.287 200.162 432.332 199.865 432.34C199.108 433.859 197.305 434.978 195.637 434.405C194.912 434.157 194.213 433.819 193.542 433.414C183.054 442.627 172.011 451.272 160.654 459.377C139.593 474.405 117.517 488.13 94.6258 500.197C89.4698 502.915 84.2744 505.56 79.0349 508.102L74.5252 510.276C69.5336 512.678 64.425 515.068 59.1238 516.558C58.0904 516.849 57.0082 517.084 55.8995 517.264C55.8851 517.363 55.8815 517.458 55.888 517.549C54.8913 517.682 54.0215 517.702 53.2788 517.61L53.1096 517.587C46.6118 518.041 39.6615 516.454 35.4812 511.708C34.7845 512.197 33.7686 512.251 32.8721 511.547C28.3637 508.009 25.6762 502.623 23.3176 497.48C20.9262 492.264 19.0517 486.827 17.6744 481.258C14.9233 470.134 13.8321 458.66 13.7746 447.218C13.5667 403.126 24.608 358.647 43.7864 319.062C48.6504 309.023 54.012 299.171 59.964 289.733C65.8997 280.322 72.7923 271.575 81.6194 264.711C84.1578 262.737 86.7984 260.933 89.522 259.271C87.694 258.365 86.9679 256.06 86.8399 254.013C86.556 249.466 87.0977 244.228 89.7596 240.391C93.4936 235.01 100.178 231.691 106.376 230.077C109.612 229.235 112.959 228.745 116.296 228.579C118.017 228.493 119.805 228.776 121.505 228.59C123.005 228.427 123.932 227.532 124.795 226.355C127.005 223.338 128.444 220.174 131.613 217.962C134.866 215.694 139.08 214.825 142.998 215.061C147.562 215.335 151.726 217.134 155.746 219.2C159.374 221.066 162.896 223.132 166.328 225.336C166.958 223.862 167.55 222.376 168.101 220.885C169.17 217.995 170.1 215.013 170.855 212.025C171.62 208.996 171.508 204.995 173.818 202.717C175.827 200.737 179.695 201.514 180.347 204.441ZM336.056 406.586L336.039 406.59C331.366 409.359 329.132 416.28 326.932 419.305C327.112 420.319 327.238 421.351 327.486 422.311C328.055 424.516 328.798 426.702 329.659 428.802C331.174 432.512 333.071 436.046 334.824 439.643C336.235 442.535 337.617 445.481 338.693 448.525C338.576 448.642 338.468 448.781 338.377 448.952C337.21 451.137 336.297 450.708 334.145 450.231L334.144 450.226C332.913 446.458 331.137 442.92 329.542 439.304L329.154 438.422L328.77 437.538C327.437 434.444 326.221 431.321 325.512 428.005C325.062 425.891 324.877 423.717 324.85 421.558C323.683 422.519 322.281 423.209 320.514 423.474C316.734 424.045 313.31 421.677 310.23 419.778L309.536 419.353C307.608 418.18 305.696 417.096 303.473 416.542C300.949 415.911 298.339 415.911 295.775 415.59C295.468 415.55 295.158 415.509 294.846 415.46C295.847 418.773 296.311 422.37 296.906 425.688C297.736 430.339 298.412 435.032 299.061 439.711C300.323 448.78 301.202 457.92 301.647 467.067C302.079 475.922 301.862 484.744 301.541 493.597L301.382 497.914C301.254 501.429 301.148 504.948 301.21 508.464C301.382 508.477 301.553 508.504 301.725 508.545C303.5 508.959 304.712 510.771 306.335 511.578C309.76 513.282 313.898 513.26 317.544 512.399C325.837 510.433 332.733 504.645 337.276 497.573C342.73 489.09 344.731 479.106 344.667 469.117C344.592 457.876 342.772 447.127 340.238 436.275L340.075 435.582C337.942 426.54 336.606 406.672 336.056 406.586ZM103.834 383.904C103.882 386.928 102.652 390.162 101.977 393.1C101.249 396.266 100.524 399.431 99.788 402.596L99.1264 405.43C98.5756 407.793 98.0325 410.157 97.5458 412.534C97.1455 414.488 96.9779 417.063 96.3221 419.217C104.122 416.062 111.935 412.939 119.734 409.794C129.343 405.918 138.997 402.149 148.629 398.336C158.225 394.541 167.766 390.222 177.556 386.977C179.886 386.202 181.463 389.92 179.232 390.952C169.289 395.564 158.77 399.174 148.584 403.214L133.85 409.063C120.343 414.423 106.826 419.757 93.242 424.908C83.989 428.415 74.7721 432.025 65.4606 435.356C61.0211 436.943 56.5416 438.444 52.1242 440.089C48.424 441.468 44.4217 443.515 43.0516 447.49C42.9795 447.698 42.6955 447.612 42.7271 447.4C43.2814 443.551 46.1393 441.144 49.3614 439.323C53.638 436.9 58.3352 435.136 62.8496 433.193L63.464 432.927C72.6822 428.906 81.9748 425.048 91.2949 421.255C91.2026 421.029 91.148 420.788 91.144 420.535L91.1174 420.543C90.9479 418.819 91.738 417.283 92.3063 415.68L93.9365 411.08C95.0227 408.018 95.9971 404.917 97.0009 401.827C98.0506 398.596 99.1102 395.37 100.168 392.142C101.064 389.408 101.666 386.15 103.199 383.706C103.384 383.412 103.893 383.577 103.834 383.904ZM283.345 377.106L283.228 377.693C283.093 378.379 282.966 379.071 282.934 379.765C282.844 381.582 283.051 383.398 283.534 385.152C284.007 386.887 284.669 388.564 285.612 390.101C286.504 391.547 287.798 392.684 288.622 394.167C288.708 394.324 288.762 394.482 288.784 394.635C289.1 394.505 289.411 394.388 289.713 394.292C292.228 393.495 294.797 392.827 297.402 392.328L296.988 392.3L296.722 392.278C292.369 391.91 288.262 390.486 289.15 385.404C289.652 382.531 291.906 380.604 294.323 379.239L294.626 379.071C294.756 378.998 294.892 378.926 295.022 378.864C292.836 378.494 291.25 378.039 288.568 377.588C286.828 377.295 285.084 377.133 283.345 377.106ZM84.4983 314.505C88.7782 323.153 91.998 332.348 94.4273 341.677C95.6001 346.182 96.5955 350.732 97.3957 355.318L97.6586 356.849L97.808 357.68C98.5555 361.768 99.505 366.196 98.407 370.185C98.0487 371.488 95.8854 372.004 95.2796 370.594C93.4525 366.339 93.7094 361.448 93.1798 356.894C92.6232 352.116 91.8637 347.361 90.9172 342.645C89.0993 333.583 86.5475 324.733 83.7032 315.949L83.386 314.974C83.1444 314.323 84.1963 313.895 84.4983 314.505ZM249.005 353.193C247.73 353.793 246.454 354.343 245.327 354.892C245.242 354.938 245.152 354.978 245.062 355.024C246.337 354.807 247.617 354.604 248.897 354.415C248.884 354 248.925 353.59 249.005 353.193ZM298.913 348.862C298.722 348.924 298.552 349.025 298.405 349.163L298.333 349.235C298.157 349.398 298.033 349.592 297.961 349.815C297.848 350.03 297.796 350.262 297.805 350.51L297.869 350.989C297.955 351.295 298.11 351.559 298.333 351.784L298.698 352.066C298.944 352.209 299.207 352.29 299.487 352.308L299.608 352.313L299.973 352.313C300.181 352.306 300.378 352.254 300.562 352.157C300.754 352.095 300.923 351.995 301.07 351.857L301.142 351.784C301.318 351.621 301.442 351.428 301.515 351.204C301.612 351.02 301.663 350.824 301.67 350.615L301.67 350.51L301.606 350.03C301.531 349.763 301.403 349.526 301.223 349.321L301.142 349.235L300.777 348.952C300.531 348.81 300.268 348.729 299.988 348.711L299.867 348.707H299.608C299.359 348.697 299.128 348.749 298.913 348.862ZM287.186 348.252C286.229 348.428 285.686 349.589 285.928 350.469C286.195 351.444 287.122 351.877 288.052 351.744L288.145 351.729C289.235 351.528 290.303 351.606 291.341 351.989C292.254 352.326 293.316 351.611 293.558 350.729C293.835 349.722 293.216 348.85 292.299 348.512C290.654 347.904 288.889 347.938 287.186 348.252ZM97.2998 284.221C99.4806 287.417 100.842 291.666 102.185 295.318L102.32 295.681C103.748 299.52 105.125 303.389 106.409 307.278C108.973 315.043 112.315 323.167 112.932 331.369C113.047 332.883 110.73 333.49 110.059 332.148C108.129 328.291 107.092 324.27 105.95 320.135C104.861 316.192 103.727 312.261 102.592 308.331C101.458 304.403 100.36 300.463 99.2428 296.529C98.1561 292.703 96.6431 288.448 96.3943 284.466C96.3619 283.948 97.0492 283.853 97.2998 284.221ZM146.521 258.489C149.432 260.51 151.816 263.466 154.28 265.994C156.779 268.558 159.245 271.147 161.687 273.766C165.77 278.143 169.778 282.591 173.917 286.915C182.167 295.531 191.5 303.459 202.885 307.509C205.641 308.489 204.434 312.911 201.672 311.91C190.026 307.687 180.379 299.88 171.869 291.048C167.462 286.473 163.418 281.585 159.475 276.611C157.629 274.282 155.798 271.947 153.992 269.589L152.912 268.172C150.642 265.176 147.864 262.19 146.203 258.808C146.11 258.617 146.314 258.347 146.521 258.489Z" fill="#B4919A"/>
<path fill-rule="evenodd" clip-rule="evenodd" d="M204.549 31.5186C211.584 30.0987 218.808 29.2152 225.993 29.4812L226.547 29.5027C231.953 29.7188 238.799 30.1967 243.515 33.3405C243.786 33.0682 244.222 32.9285 244.618 33.1174C250.222 35.7926 256.386 37.7267 262.286 39.6487C268.16 41.5613 274.254 42.8238 280.41 43.3327C282.726 43.5243 284.708 46.0255 283.242 48.2689C282.893 48.8035 282.553 49.3435 282.214 49.8848C282.78 49.8258 283.347 49.7649 283.913 49.7077C285.775 49.5202 287.636 51.5084 287.526 53.3222C287.457 54.4631 287.334 55.5904 287.152 56.7042C287.861 56.6894 288.567 56.7957 289.248 57.0838C292.699 58.541 292.458 62.6514 292.2 65.7787C291.842 70.1185 290.219 74.7153 287.206 77.9634C289.456 80.3005 291.049 83.0916 291.999 86.4064C292.688 88.8269 293.071 91.4052 292.882 93.9249L292.822 94.6793C292.588 97.4137 292.122 100.441 290.155 102.408C289.146 103.422 287.902 103.792 286.716 103.675C287.433 109.976 287.893 116.314 288.325 122.629L288.528 125.647C289.494 140.242 290.219 154.932 290.029 169.552C289.853 183.214 287.154 196.475 278.775 207.568C271.144 217.669 260.188 225.116 247.794 227.946C241.114 229.474 234.295 229.583 227.534 228.609C224.257 228.136 220.959 227.41 217.848 226.265C214.405 224.994 211.931 223.123 209.615 220.32C208.519 218.99 209.046 216.159 211.228 216.425C214.528 216.825 217.54 217.308 220.704 218.284L221.157 218.427C224.307 219.436 227.571 220.189 230.865 220.509C237.612 221.163 244.463 220.505 250.926 218.458C261.45 215.123 270.514 207.69 276.323 198.35C283.219 187.28 283.999 174.713 283.899 161.984C283.792 148.016 283.338 134.04 282.597 120.086L282.47 117.761C282.078 110.58 281.7 103.395 281.367 96.2102C281.263 93.9565 281.105 91.6847 280.821 89.4354C278.221 87.9119 275.891 85.8114 274.372 83.2196C271.32 84.4817 268.111 85.3922 265.159 86.1179C258.32 87.8001 251.219 88.2085 244.258 87.1551C242.381 87.9308 240.466 88.6128 238.521 89.1997C237.996 89.4327 237.47 89.6617 236.945 89.8862C232.257 91.892 227.502 93.5914 222.554 94.8354L221.339 95.1386C218.734 95.7806 215.906 96.4129 213.135 96.6114C212.679 96.7872 212.188 96.9359 211.651 97.0666C209.128 97.6797 206.509 97.8735 203.922 97.6571C201.402 97.4453 199.581 94.8985 200.97 92.5141C201.984 90.7742 203.007 89.0388 204.039 87.3079C200.447 88.8044 196.738 90.0485 192.997 91.1032C189.22 92.167 185.389 93.064 181.553 93.8889C179.503 94.3261 177.443 94.7137 175.397 95.151C173.932 95.462 171.683 95.6242 170.488 96.5888C169.168 97.6481 168.794 100.118 168.293 101.642C167.635 103.621 167.018 105.608 166.455 107.619C165.333 111.63 164.413 115.701 163.701 119.811C162.989 123.927 162.511 128.083 162.245 132.252C161.98 136.417 162.096 140.609 161.669 144.756C161.438 146.956 159.077 148.087 157.333 146.55C157.128 146.37 156.922 146.187 156.718 146.003L156.413 145.725C154.921 144.373 153.474 142.939 152.28 141.326C152.064 141.028 151.857 140.717 151.663 140.402C151.631 140.402 151.604 140.393 151.573 140.37L151.242 140.121C147.597 137.408 141.507 133.87 137.953 138.378C136.82 139.814 136.24 141.643 135.759 143.407L134.914 146.564C134.368 148.625 133.854 150.697 133.553 152.806C132.873 157.53 133.215 162.975 136.465 166.762C137.763 168.276 139.553 169.358 141.549 169.642C142.662 169.795 143.762 169.606 144.866 169.466C145.989 169.326 147.07 169.552 148.193 169.444C149.977 169.268 150.757 171.404 150.09 172.748C149.729 173.469 149.305 174.091 148.824 174.618C149.211 174.952 149.581 175.312 149.937 175.691C150.991 176.029 151.937 176.755 152.645 177.715C153.218 178.49 153.515 179.333 153.565 180.221C153.628 180.442 153.682 180.667 153.732 180.897L154.699 182.467C154.911 182.811 155.123 183.151 155.336 183.484C157.797 187.361 160.528 190.642 163.922 193.735C167.19 196.709 170.736 199.373 173.806 202.565L174.168 202.944C177.029 205.96 180.046 209.61 178.926 213.996C178.638 215.123 177.064 215.934 176.037 215.172C172.733 212.72 171.07 208.835 168.267 205.86C165.382 202.795 162.186 200.041 159.293 196.984C156.557 194.1 154.398 190.832 152.772 187.235C152.122 187.951 151.176 188.461 149.865 188.659C147.611 188.997 145.51 187.676 144.528 185.725C143.897 186.004 143.253 186.257 142.603 186.455C139.187 187.501 137.038 183.701 138.327 180.893C139.016 179.387 139.877 178.08 140.945 176.98C137.605 176.52 134.207 174.794 132.012 172.639C126.505 167.226 125.747 159.09 126.987 151.855C127.645 148.019 128.78 144.138 130.255 140.537C130.511 139.91 130.786 139.279 131.088 138.657C130.921 138.653 130.75 138.581 130.642 138.441C129.646 137.08 128.434 135.966 127.694 134.443C127.013 133.046 126.257 131.63 125.72 130.174C124.616 127.195 124.075 123.832 123.715 120.681C122.971 114.231 123.259 107.822 124.247 101.412C125.927 90.4947 129.987 80.0472 135.969 70.8799C135.643 70.7087 135.331 70.5021 135.04 70.2578L134.896 70.1325L134.663 69.9216C132.956 68.3769 133.103 65.4817 134.663 63.9171L135.155 63.4234C135.779 62.8037 136.317 62.3128 137.324 61.6381C137.473 61.5385 137.625 61.4448 137.779 61.3573C137.251 60.3828 137.068 59.2433 137.436 57.9862C138.716 53.6067 145.016 53.7617 149.01 55.6716C153.428 51.7279 158.328 48.3045 163.638 45.5324C176.285 38.9334 190.585 34.3312 204.549 31.5186ZM139.174 146.866C141.536 146.095 144.673 147.713 146.796 148.687C149.486 149.922 151.776 151.747 153.993 153.676C155.098 154.641 155.295 156.219 155.021 157.566C154.993 157.702 154.967 157.841 154.935 157.981C154.642 159.419 153.037 160.55 151.618 160.51C148.648 160.429 147.233 157.864 145.551 155.691C145.353 156.043 145.105 156.367 144.799 156.611L144.591 156.773C143.894 157.304 143.124 157.729 142.203 157.688C141.549 157.656 140.923 157.49 140.346 157.188C138.903 156.426 138.268 154.56 138.66 153.041C138.903 152.085 139.462 151.337 140.192 150.819L139.92 150.632C139.338 150.227 138.807 149.8 138.393 149.169L138.299 149.02H138.335C137.885 148.245 138.178 147.19 139.174 146.866Z" fill="#0F1B61"/>
<path fill-rule="evenodd" clip-rule="evenodd" d="M250.413 192.226C247.093 193.188 243.529 193.274 240.145 192.281C237.075 191.38 233.923 189.397 231.664 186.774C229.657 184.443 228.357 181.611 228.408 178.587C228.414 178.242 228.538 177.954 228.728 177.73C228.932 177.489 229.218 177.324 229.523 177.252C229.838 177.178 230.171 177.205 230.454 177.333C230.71 177.45 230.93 177.648 231.067 177.937C231.414 178.393 231.76 178.842 232.107 179.279C234.899 182.727 237.602 185.303 241.8 186.227C244.078 186.729 246.353 186.506 248.44 185.741C250.674 184.922 252.694 183.482 254.276 181.639C254.992 180.806 255.836 180.467 256.662 180.461C257.597 180.454 258.522 180.889 259.219 181.584C259.904 182.267 260.362 183.196 260.404 184.167C260.44 185.019 260.162 185.909 259.423 186.704C256.987 189.32 253.829 191.237 250.413 192.226ZM250.311 149.048C253.714 151.117 258.9 155.941 255.239 161.071C250.929 165.593 244.724 160.408 241.666 158.063C238.831 156.245 235.646 160.92 238.276 163.042C260.371 179.402 269.338 149.589 252.032 146.615C250.127 146.288 249.419 148.408 250.311 149.048ZM218.474 139.944C217.38 139.245 216.093 139.004 214.667 139.653C213.552 140.16 211.598 141.85 210.237 144.071C209.307 145.591 208.647 147.373 208.784 149.23C208.816 149.661 208.657 149.979 208.406 150.214C208.207 150.4 207.92 150.537 207.584 150.579C207.298 150.615 206.978 150.583 206.718 150.501C206.223 150.347 205.961 150.026 205.862 149.764C204.91 147.234 205.32 144.411 206.387 141.864C207.828 138.427 210.444 135.548 212.158 134.62C215.091 133.031 218.551 132.958 221.488 134.577C223.989 135.955 225.552 138.179 227.107 140.446C227.437 140.928 227.765 141.406 228.105 141.876C228.784 142.818 228.852 143.752 228.589 144.553C228.297 145.441 227.554 146.19 226.624 146.581C225.765 146.944 224.768 146.995 223.886 146.623C223.14 146.308 222.456 145.695 222.023 144.655C221.295 142.904 220.08 140.972 218.474 139.944V139.944ZM274.03 143.841C273.28 144.231 272.694 144.349 271.863 144.1C271.404 143.962 270.949 143.697 270.594 143.342C270.241 142.989 269.987 142.551 269.888 142.064C269.645 140.864 268.989 139.741 268.053 139.009C267.253 138.383 266.244 138.051 265.125 138.238C263.916 138.44 262.766 139.215 261.973 140.128C261.708 140.434 261.5 140.781 261.291 141.126C260.901 141.771 260.521 142.371 259.982 142.844C259.778 143.024 259.471 143.149 259.173 143.149C259.051 143.149 258.929 143.129 258.811 143.093C257.609 141.886 257.378 140.97 257.416 140.062C257.457 139.11 257.833 138.146 258.439 137.246C259.862 135.135 262.565 133.405 264.388 133.013C266.885 132.477 269.365 133.121 271.353 134.516C273.399 135.951 274.915 138.179 275.388 140.69C275.501 141.295 275.453 141.948 275.223 142.514C274.998 143.067 274.606 143.541 274.03 143.841ZM223.981 117.444C222.482 118.904 220.708 119.13 218.914 119.332C217.917 119.444 217.121 119.535 216.338 119.712C214.185 120.198 212.057 120.93 210.116 121.984C208.087 123.086 205.875 124.415 204.284 126.118C203.906 126.523 203.549 126.948 203.192 127.374C202.866 127.762 202.552 128.136 202.222 128.497C201.842 128.911 201.482 129.345 201.123 129.778C200.901 130.144 200.857 130.234 200.813 130.327C200.746 130.468 200.667 130.625 200.578 130.794C200.456 131.025 200.313 131.278 200.163 131.507C199.913 131.927 199.779 132.042 199.663 132.094C199.471 132.179 199.289 132.221 199.113 132.199C198.947 132.177 198.791 132.098 198.637 131.967C197.867 131.317 197.64 130.25 197.664 129.118C197.699 127.399 198.333 125.496 198.917 124.327C200.276 121.609 202.16 118.783 204.425 116.755C207.011 114.439 209.839 112.686 213.088 111.479C215.107 110.728 217.444 110.038 219.644 110.125C221.227 110.188 222.738 110.659 223.986 111.834C224.753 112.556 225.121 113.582 225.121 114.607C225.121 115.653 224.738 116.706 223.981 117.444ZM277.077 130.815C276.982 130.972 276.85 131.079 276.704 131.144C276.55 131.212 276.378 131.231 276.213 131.203C276.049 131.176 275.893 131.101 275.769 130.988C275.651 130.879 275.56 130.734 275.52 130.557C274.525 126.187 272.593 122.935 268.47 120.839C266.441 119.807 264.109 119.152 261.901 118.629C261.259 118.477 260.581 118.379 259.898 118.279C257.758 117.967 255.603 117.609 254.208 115.879C253.368 114.837 253.015 113.504 253.214 112.286C253.402 111.138 254.073 110.086 255.291 109.455C258.326 107.886 262.097 109.426 265.161 110.738C265.388 110.835 265.611 110.93 265.829 111.023C268.826 112.288 271.559 113.957 273.806 116.345C275.588 118.24 277.24 121.04 277.905 123.921C278.458 126.318 278.328 128.765 277.077 130.815Z" fill="#071048"/>
<path fill-rule="evenodd" clip-rule="evenodd" d="M288.294 142.316C287.019 145.785 285.079 149.397 282.707 152.316C273.11 160.444 263.784 155.944 259.049 144.928C257.25 137.143 262.027 128.757 267.089 123.03C274.399 115.703 286.33 119.548 289.691 128.26C289.896 129.388 290.019 130.514 290.078 131.637C290.008 135.284 289.569 138.401 288.294 141.865M196.043 135.32C208.687 120.28 232.339 119.476 231.736 142.624C229.02 171.925 183.287 164.733 196.043 135.32ZM292.27 122.773C291.827 122.023 291.335 121.297 290.799 120.602C290.6 120.484 290.486 119.437 289.757 119.359C280.01 108.605 262.886 114.706 256.699 125.422C255.569 126.777 254.647 128.364 253.968 130.04C247.871 128.921 240.764 129.138 235.094 131.441C229.472 116.76 212.451 115.449 201.235 121.722C194.258 125.153 189.735 132.34 182.95 136.287C167 137.435 149.881 133.861 134.219 137.863C121.867 140.431 132.193 146.686 134.265 142.512C149.031 138.149 166.525 141.836 181.857 140.853C183.451 143.549 186.508 145.756 189.555 145.662C192.845 174.835 235.385 169.998 236.852 144.065C238.517 141.433 240.587 138.914 243.55 137.274C244.684 137.039 245.78 136.734 246.781 136.262C248.493 136.02 251.13 136.746 252.705 138.171C258.1 170.542 289.178 166.772 294.732 138.414C294.842 138.301 295.151 137.878 295.388 137.2C297.289 134.686 301.943 133.751 301.2 129.508C300.537 125.263 295.178 125.313 292.27 122.773Z" fill="#0F1B61"/>
</svg>
