<svg width="71" height="71" viewBox="0 0 71 71" fill="none" xmlns="http://www.w3.org/2000/svg">
<circle cx="35.3476" cy="35.8455" r="35" fill="#DCF5FF"/>
<path d="M55.6601 23.2625C54.1659 23.907 52.54 24.3709 50.8652 24.5515C52.604 23.5185 53.9061 21.8865 54.5273 19.9617C52.8956 20.9323 51.1081 21.613 49.2441 21.9734C48.465 21.1405 47.5227 20.477 46.476 20.0242C45.4293 19.5714 44.3005 19.3391 43.1601 19.3416C38.5458 19.3416 34.8349 23.0818 34.8349 27.6717C34.8349 28.3162 34.913 28.9607 35.04 29.5808C28.1308 29.2195 21.9687 25.9187 17.872 20.865C17.1255 22.14 16.7344 23.5917 16.7392 25.0691C16.7392 27.9597 18.2089 30.5086 20.4501 32.0076C19.1294 31.9556 17.8395 31.5925 16.6855 30.948V31.0506C16.6855 35.0984 19.5468 38.4529 23.3603 39.2244C22.6443 39.4104 21.9077 39.5055 21.1679 39.5076C20.6259 39.5076 20.1132 39.4539 19.5956 39.3806C20.6503 42.6814 23.7216 45.0789 27.3788 45.157C24.5175 47.3982 20.9335 48.7166 17.0419 48.7166C16.3437 48.7166 15.6992 48.6922 15.0302 48.614C18.7216 50.9822 23.1015 52.3494 27.8183 52.3494C43.1308 52.3494 51.5097 39.6638 51.5097 28.6531C51.5097 28.2918 51.5097 27.9304 51.4853 27.5691C53.1064 26.3826 54.5273 24.9129 55.6601 23.2625Z" fill="#00ACEE"/>
</svg>
